<svg width="185" height="186" viewBox="0 0 185 186" fill="none" xmlns="http://www.w3.org/2000/svg">
<path d="M26.5908 99.5L26.2253 92.0539L24.7361 92.127L25.1016 99.5731L26.5908 99.5Z" fill="#222222"/>
<path d="M35.065 72.1688C35.4143 71.1477 35.5454 70.172 35.4584 69.2418C35.376 68.2981 35.1468 67.4543 34.771 66.7104C34.3863 65.9485 33.9262 65.3409 33.3909 64.8877L32.2088 66.1717C32.9535 66.8466 33.4545 67.6633 33.7119 68.6219C33.974 69.5669 33.9211 70.5769 33.5535 71.6518C33.1766 72.7535 32.5858 73.647 31.7812 74.3322C30.963 75.0129 30.001 75.4342 28.895 75.5962C27.7891 75.7582 26.618 75.6277 25.382 75.2049C24.1324 74.7775 23.1269 74.1634 22.3652 73.3626C21.5902 72.5572 21.0877 71.6349 20.8579 70.5958C20.628 69.5567 20.7015 68.4863 21.0784 67.3845C21.446 66.3097 22.0296 65.4812 22.829 64.8992C23.6195 64.2992 24.5158 63.9604 25.5178 63.883L25.3698 62.1439C24.6556 62.1698 23.9198 62.3683 23.1625 62.7396C22.3963 63.0929 21.6916 63.6172 21.0485 64.3127C20.41 64.9948 19.9161 65.8464 19.5668 66.8675C19.2038 67.9289 19.0654 68.9696 19.1517 69.9897C19.2246 71.0051 19.4977 71.9615 19.9712 72.8589C20.4493 73.7428 21.0965 74.527 21.9129 75.2114C22.7293 75.8959 23.7018 76.4312 24.8305 76.8172C25.9591 77.2033 27.0557 77.3758 28.1202 77.3347C29.1848 77.2937 30.1768 77.0702 31.096 76.6642C32.0065 76.2403 32.8081 75.6515 33.5011 74.8981C34.1806 74.14 34.7019 73.2302 35.065 72.1688Z" fill="#222222"/>
<path d="M44.1422 55.5493C44.8226 54.6754 45.2982 53.7409 45.569 52.746C45.8372 51.7311 45.9081 50.7155 45.7816 49.6991C45.6438 48.6741 45.3093 47.6937 44.7779 46.7582C44.2354 45.8139 43.4935 44.9753 42.5524 44.2426C41.6112 43.5098 40.6219 43.0005 39.5846 42.7148C38.5473 42.4291 37.5205 42.3495 36.5042 42.4761C35.4766 42.5939 34.5094 42.9116 33.6025 43.4293C32.6931 43.927 31.8981 44.6128 31.2177 45.4868C30.5373 46.3607 30.0573 47.3008 29.7779 48.307C29.5071 49.3019 29.4406 50.3119 29.5783 51.337C29.7049 52.3533 30.0394 53.3336 30.582 54.2779C31.1133 55.2135 31.8496 56.0477 32.7907 56.7805C33.7319 57.5133 34.7268 58.0269 35.7753 58.3213C36.8126 58.607 37.845 58.691 38.8725 58.5731C39.8889 58.4466 40.8517 58.1345 41.7612 57.6368C42.6681 57.1191 43.4618 56.4233 44.1422 55.5493ZM42.8817 54.5679C42.1315 55.5315 41.2332 56.1999 40.1868 56.573C39.1405 56.9461 38.0594 57.0402 36.9436 56.8554C35.8253 56.6506 34.79 56.1774 33.8376 55.4359C33.1317 54.8863 32.5566 54.2497 32.1123 53.5258C31.6768 52.7908 31.3882 52.0173 31.2467 51.2052C31.1051 50.3931 31.131 49.5854 31.3244 48.7822C31.5266 47.9678 31.9112 47.1965 32.4782 46.4682C33.0453 45.7399 33.6944 45.1835 34.4257 44.799C35.1656 44.4033 35.9466 44.1746 36.7686 44.1127C37.5907 44.0508 38.407 44.1465 39.2176 44.3997C40.037 44.6417 40.7996 45.0375 41.5055 45.5871C42.4579 46.3286 43.1661 47.2219 43.6302 48.2671C44.0917 49.2923 44.2699 50.3578 44.1647 51.4637C44.0596 52.5696 43.6319 53.6044 42.8817 54.5679Z" fill="#222222"/>
<path d="M53.5566 45.087L54.9797 44.1496L48.0429 33.6193L62.2725 39.3454L63.5177 38.5252L54.7882 25.2735L53.3652 26.2109L60.255 36.6699L46.0723 31.015L44.8271 31.8353L53.5566 45.087Z" fill="#222222"/>
<path d="M72.1252 35.0649L73.7438 34.5322L69.282 20.9765L73.4094 19.618L72.9099 18.1005L62.9961 21.3636L63.4955 22.8811L67.6634 21.5092L72.1252 35.0649Z" fill="#222222"/>
<path d="M81.1958 32.3019L82.9808 32.1785L84.0947 28.2156L91.1707 27.7265L92.798 31.4999L94.583 31.3765L87.7088 15.9452L85.8814 16.0716L81.1958 32.3019ZM84.537 26.5837L86.9332 18.0058L90.4656 26.1739L84.537 26.5837Z" fill="#222222"/>
<path d="M106.213 33.601C107.266 33.8381 108.25 33.8631 109.165 33.6762C110.094 33.4924 110.909 33.1736 111.608 32.7196C112.324 32.2549 112.878 31.732 113.271 31.1509L111.867 30.1143C111.276 30.9274 110.518 31.5137 109.593 31.873C108.682 32.2355 107.672 32.292 106.564 32.0425C105.428 31.7868 104.476 31.2959 103.708 30.5699C102.943 29.83 102.42 28.919 102.14 27.837C101.859 26.755 101.862 25.5767 102.149 24.3022C102.439 23.0139 102.941 21.9479 103.655 21.1043C104.372 20.2468 105.235 19.6478 106.243 19.3071C107.251 18.9664 108.324 18.924 109.46 19.1797C110.568 19.4292 111.454 19.9199 112.119 20.6519C112.801 21.373 113.235 22.2275 113.42 23.2153L115.133 22.8804C115.03 22.1732 114.753 21.4632 114.302 20.7503C113.868 20.0268 113.271 19.3828 112.51 18.8185C111.763 18.2574 110.863 17.8583 109.81 17.6212C108.716 17.3748 107.666 17.3496 106.662 17.5455C105.66 17.7275 104.739 18.1023 103.898 18.6699C103.071 19.2405 102.361 19.9686 101.768 20.8542C101.176 21.7397 100.749 22.7643 100.487 23.928C100.225 25.0916 100.172 26.2005 100.328 27.2544C100.483 28.3083 100.813 29.2704 101.315 30.1404C101.835 30.9998 102.507 31.7332 103.331 32.3408C104.158 32.9346 105.118 33.3546 106.213 33.601Z" fill="#222222"/>
<path d="M119.91 38.3945L121.413 39.1982L128.144 26.6141L131.975 28.6635L132.729 27.2548L123.525 22.3322L122.772 23.7409L126.641 25.8104L119.91 38.3945Z" fill="#222222"/>
<path d="M138.093 53.0627C138.831 53.927 139.649 54.5258 140.55 54.8591C141.459 55.2033 142.374 55.291 143.294 55.1223C144.224 54.9443 145.089 54.5144 145.889 53.8325L154.024 46.8935L152.918 45.597L144.783 52.536C143.908 53.2824 142.965 53.6105 141.955 53.5203C140.956 53.4208 140.074 52.9227 139.309 52.026C138.553 51.1401 138.201 50.1904 138.251 49.1771C138.321 48.1653 138.794 47.2863 139.669 46.5398L147.804 39.6009L146.698 38.3044L138.563 45.2434C137.763 45.9253 137.202 46.7117 136.88 47.6027C136.568 48.4845 136.51 49.4016 136.707 50.3539C136.903 51.3063 137.365 52.2092 138.093 53.0627Z" fill="#222222"/>
<path d="M147.391 67.6994C147.808 68.6175 148.343 69.3493 148.996 69.8949C149.655 70.4535 150.363 70.7947 151.121 70.9184C151.898 71.0493 152.674 70.9386 153.45 70.5865C154.407 70.1521 155.07 69.5002 155.439 68.6308C155.809 67.7613 155.904 66.6813 155.723 65.3909L155.363 62.7941C155.244 61.9126 155.332 61.1787 155.627 60.5924C155.935 60.0003 156.387 59.5692 156.981 59.2992C157.718 58.9647 158.418 58.9592 159.079 59.2827C159.754 59.6003 160.279 60.1729 160.654 61.0005C161.053 61.8797 161.18 62.7424 161.034 63.5885C160.893 64.4475 160.467 65.2258 159.754 65.9235L160.914 67.0347C161.453 66.5402 161.873 65.9364 162.173 65.2232C162.473 64.51 162.62 63.7338 162.614 62.8947C162.626 62.0627 162.435 61.2135 162.042 60.3472C161.666 59.5196 161.161 58.8524 160.525 58.3456C159.896 57.8517 159.198 57.5522 158.433 57.4473C157.681 57.3364 156.924 57.4541 156.161 57.8004C155.269 58.2054 154.597 58.8379 154.145 59.6979C153.699 60.5709 153.559 61.5856 153.726 62.7421L154.129 65.6932C154.251 66.5113 154.206 67.2023 153.994 67.7662C153.783 68.3302 153.321 68.7736 152.61 69.0965C151.886 69.4251 151.172 69.3983 150.468 69.016C149.77 68.6467 149.21 67.9965 148.787 67.0655C148.341 66.0828 148.209 65.1214 148.391 64.1814C148.585 63.2354 149.097 62.3713 149.927 61.589L148.77 60.4303C148.158 60.9729 147.673 61.6378 147.313 62.425C146.965 63.2064 146.788 64.0513 146.779 64.9597C146.77 65.8681 146.974 66.7814 147.391 67.6994Z" fill="#222222"/>
<path d="M157.522 84.3033L158.031 91.7409L159.518 91.6393L159.01 84.2016L157.522 84.3033Z" fill="#222222"/>
<path d="M149.574 111.792C149.245 112.82 149.132 113.798 149.237 114.726C149.338 115.668 149.583 116.507 149.973 117.244C150.372 117.998 150.844 118.597 151.388 119.04L152.545 117.733C151.787 117.073 151.271 116.266 150.995 115.312C150.715 114.372 150.748 113.362 151.095 112.28C151.451 111.171 152.025 110.267 152.816 109.566C153.621 108.87 154.575 108.43 155.677 108.247C156.78 108.064 157.953 108.172 159.197 108.571C160.455 108.974 161.472 109.569 162.249 110.355C163.039 111.145 163.559 112.058 163.809 113.092C164.059 114.127 164.006 115.198 163.65 116.307C163.303 117.389 162.736 118.228 161.947 118.826C161.169 119.441 160.279 119.796 159.279 119.893L159.46 121.629C160.174 121.589 160.905 121.377 161.655 120.991C162.415 120.623 163.109 120.085 163.739 119.378C164.364 118.684 164.842 117.823 165.171 116.795C165.514 115.727 165.632 114.684 165.526 113.665C165.434 112.652 165.143 111.701 164.652 110.812C164.157 109.938 163.495 109.166 162.666 108.498C161.836 107.829 160.854 107.312 159.718 106.948C158.582 106.584 157.482 106.432 156.419 106.494C155.355 106.555 154.368 106.798 153.456 107.221C152.554 107.663 151.764 108.267 151.085 109.033C150.421 109.804 149.917 110.724 149.574 111.792Z" fill="#222222"/>
<path d="M140.818 128.583C140.154 129.469 139.696 130.413 139.445 131.413C139.196 132.433 139.145 133.449 139.291 134.463C139.448 135.485 139.801 136.459 140.351 137.384C140.911 138.318 141.669 139.142 142.624 139.857C143.579 140.571 144.578 141.061 145.621 141.327C146.663 141.593 147.691 141.653 148.705 141.507C149.73 141.369 150.691 141.033 151.588 140.498C152.488 139.983 153.269 139.282 153.933 138.395C154.596 137.508 155.058 136.559 155.318 135.548C155.57 134.548 155.617 133.537 155.46 132.515C155.314 131.501 154.96 130.527 154.4 129.594C153.851 128.668 153.098 127.848 152.143 127.134C151.188 126.419 150.184 125.925 149.13 125.651C148.087 125.385 147.053 125.321 146.028 125.458C145.015 125.604 144.058 125.935 143.158 126.45C142.261 126.985 141.481 127.696 140.818 128.583ZM142.097 129.54C142.828 128.562 143.714 127.876 144.753 127.483C145.792 127.09 146.871 126.975 147.99 127.139C149.112 127.322 150.156 127.775 151.123 128.498C151.839 129.034 152.426 129.66 152.884 130.375C153.334 131.101 153.637 131.869 153.794 132.678C153.951 133.488 153.941 134.296 153.763 135.102C153.576 135.921 153.207 136.699 152.654 137.438C152.101 138.177 151.462 138.746 150.739 139.144C150.006 139.554 149.23 139.798 148.409 139.876C147.589 139.953 146.771 139.873 145.955 139.636C145.131 139.409 144.361 139.028 143.645 138.492C142.678 137.769 141.953 136.89 141.469 135.854C140.988 134.837 140.79 133.776 140.873 132.668C140.957 131.56 141.365 130.517 142.097 129.54Z" fill="#222222"/>
<path d="M131.606 139.224L130.201 140.188L137.338 150.583L123.002 145.131L121.772 145.975L130.755 159.057L132.159 158.092L125.07 147.768L139.359 153.149L140.588 152.305L131.606 139.224Z" fill="#222222"/>
<path d="M113.233 149.6L111.625 150.164L116.346 163.631L112.245 165.069L112.774 166.576L122.623 163.124L122.095 161.616L117.954 163.068L113.233 149.6Z" fill="#222222"/>
<path d="M104.216 152.536L102.434 152.694L101.397 156.678L94.3312 157.302L92.6318 153.561L90.8496 153.718L98.0185 169.015L99.8431 168.854L104.216 152.536ZM100.986 158.318L98.7544 166.94L95.066 158.841L100.986 158.318Z" fill="#222222"/>
<path d="M79.1803 151.718C78.1231 151.501 77.1387 151.495 76.227 151.699C75.3014 151.901 74.4936 152.235 73.8034 152.702C73.0965 153.181 72.5523 153.714 72.1707 154.303L73.5944 155.312C74.1693 154.488 74.9158 153.887 75.8339 153.51C76.738 153.13 77.7465 153.054 78.8594 153.282C80 153.516 80.9613 153.989 81.7432 154.7C82.5222 155.425 83.0623 156.326 83.3634 157.402C83.6645 158.479 83.6839 159.657 83.4214 160.937C83.1561 162.23 82.6747 163.306 81.9771 164.163C81.2766 165.034 80.4256 165.649 79.4241 166.009C78.4226 166.369 77.3515 166.432 76.2108 166.198C75.098 165.97 74.2021 165.497 73.5233 164.778C72.8278 164.07 72.3779 163.224 72.1739 162.24L70.4677 162.607C70.584 163.312 70.8744 164.017 71.3389 164.721C71.7865 165.436 72.3961 166.069 73.1677 166.618C73.9253 167.165 74.8327 167.547 75.8899 167.763C76.9888 167.989 78.0387 167.994 79.0395 167.779C80.0375 167.578 80.9515 167.185 81.7814 166.602C82.5975 166.015 83.2931 165.274 83.8684 164.377C84.4436 163.48 84.8511 162.447 85.0907 161.279C85.3303 160.11 85.3622 159.001 85.1862 157.95C85.0103 156.899 84.6627 155.944 84.1433 155.084C83.6072 154.234 82.9214 153.514 82.086 152.922C81.2478 152.344 80.2792 151.943 79.1803 151.718Z" fill="#222222"/>
<path d="M65.3933 147.188L63.8755 146.413L57.3874 159.124L53.5172 157.149L52.7909 158.571L62.0869 163.317L62.8132 161.894L58.9051 159.899L65.3933 147.188Z" fill="#222222"/>
<path d="M46.9314 132.871C46.1778 132.021 45.3477 131.438 44.4413 131.122C43.5254 130.796 42.6092 130.725 41.6927 130.912C40.7656 131.107 39.9089 131.554 39.1226 132.251L31.1219 139.345L32.2524 140.62L40.2531 133.526C41.1137 132.763 42.0499 132.417 43.0616 132.488C44.0627 132.568 44.9542 133.049 45.7361 133.931C46.5086 134.802 46.8795 135.745 46.8487 136.759C46.7979 137.772 46.3422 138.66 45.4816 139.423L37.4808 146.517L38.6113 147.792L46.612 140.698C47.3983 140.001 47.9441 139.204 48.2495 138.307C48.5442 137.419 48.5843 136.501 48.3697 135.553C48.1551 134.604 47.6757 133.711 46.9314 132.871Z" fill="#222222"/>
<path d="M37.3556 118.415C36.9213 117.506 36.3724 116.784 35.7089 116.251C35.0393 115.705 34.3244 115.378 33.5643 115.269C32.7852 115.153 32.0111 115.278 31.2422 115.645C30.2939 116.098 29.6434 116.762 29.2907 117.639C28.9379 118.515 28.8641 119.597 29.0692 120.883L29.479 123.473C29.6153 124.352 29.5414 125.087 29.2575 125.679C28.9607 126.277 28.5175 126.717 27.928 126.998C27.1976 127.347 26.4985 127.366 25.831 127.055C25.1506 126.75 24.6147 126.188 24.2232 125.368C23.8073 124.496 23.6643 123.636 23.7942 122.787C23.918 121.926 24.3294 121.139 25.0284 120.428L23.8479 119.34C23.3179 119.844 22.9097 120.456 22.6234 121.175C22.3371 121.894 22.2053 122.673 22.228 123.511C22.2318 124.343 22.4386 125.189 22.8484 126.047C23.2398 126.868 23.7581 127.525 24.4032 128.02C25.0423 128.501 25.7452 128.787 26.5121 128.878C27.2661 128.974 28.0212 128.842 28.7773 128.481C29.6616 128.059 30.3213 127.414 30.7564 126.545C31.1854 125.664 31.3057 124.647 31.1173 123.493L30.6568 120.551C30.5193 119.735 30.5511 119.043 30.752 118.475C30.953 117.907 31.4059 117.455 32.1108 117.119C32.8284 116.776 33.5427 116.789 34.2537 117.158C34.9585 117.514 35.5311 118.153 35.9715 119.076C36.4364 120.05 36.5871 121.009 36.4237 121.952C36.2475 122.902 35.7519 123.775 34.937 124.573L36.1166 125.71C36.7174 125.155 37.1903 124.481 37.5351 123.687C37.8672 122.9 38.0288 122.051 38.0201 121.143C38.0113 120.235 37.7898 119.325 37.3556 118.415Z" fill="#222222"/>
<path d="M92.5 102.999C98.299 102.999 103 98.2983 103 92.4995C103 86.7008 98.299 82 92.5 82C86.701 82 82 86.7008 82 92.4995C82 98.2983 86.701 102.999 92.5 102.999Z" fill="url(#paint0_linear_123_804)"/>
<defs>
<linearGradient id="paint0_linear_123_804" x1="78.5461" y1="99.5339" x2="101.639" y2="87.8912" gradientUnits="userSpaceOnUse">
<stop stop-color="#FFE32A"/>
<stop offset="0.5054" stop-color="#FFAA00"/>
<stop offset="1" stop-color="#FF4700"/>
</linearGradient>
</defs>
</svg>
