<svg width="575" height="300" viewBox="0 0 575 300" fill="none" xmlns="http://www.w3.org/2000/svg">
<path d="M288 272C328.869 272 362 222.975 362 162.5C362 102.025 328.869 53 288 53C247.131 53 214 102.025 214 162.5C214 222.975 247.131 272 288 272Z" fill="url(#paint0_linear_563_41614)"/>
<path d="M129.6 272V219.2H12.9V207.2L131.1 48.5H144.6V205.7H168.9V219.2H144.6V272H129.6ZM26.7 211.1L24.6 205.7H129.6V63.2L136.5 64.7L26.7 211.1ZM287.534 275.6C270.534 275.6 255.534 270.8 242.534 261.2C229.734 251.4 219.734 237.8 212.534 220.4C205.334 203 201.734 182.9 201.734 160.1C201.734 137.1 205.334 117 212.534 99.8C219.734 82.6 229.734 69.2 242.534 59.6C255.334 49.8 270.234 44.9 287.234 44.9C304.234 44.9 319.134 49.7 331.934 59.3C344.734 68.9 354.734 82.4 361.934 99.8C369.134 117 372.734 137.1 372.734 160.1C372.734 183.1 369.134 203.3 361.934 220.7C354.934 237.9 345.034 251.4 332.234 261.2C319.434 270.8 304.534 275.6 287.534 275.6ZM287.534 261.2C302.334 261.2 314.934 256.9 325.334 248.3C335.934 239.7 343.934 227.8 349.334 212.6C354.934 197.4 357.734 179.9 357.734 160.1C357.734 140.1 354.934 122.6 349.334 107.6C343.934 92.4 335.934 80.6 325.334 72.2C314.934 63.6 302.234 59.3 287.234 59.3C272.434 59.3 259.734 63.6 249.134 72.2C238.534 80.6 230.434 92.4 224.834 107.6C219.434 122.8 216.734 140.3 216.734 160.1C216.734 179.9 219.534 197.4 225.134 212.6C230.734 227.8 238.834 239.7 249.434 248.3C260.034 256.9 272.734 261.2 287.534 261.2ZM522.094 272V219.2H405.394V207.2L523.594 48.5H537.094V205.7H561.394V219.2H537.094V272H522.094ZM419.194 211.1L417.094 205.7H522.094V63.2L528.994 64.7L419.194 211.1Z" fill="#222222"/>
<defs>
<linearGradient id="paint0_linear_563_41614" x1="189.658" y1="235.861" x2="372.55" y2="173.551" gradientUnits="userSpaceOnUse">
<stop stop-color="#FFE32A"/>
<stop offset="0.5054" stop-color="#FFAA00"/>
<stop offset="1" stop-color="#FF4700"/>
</linearGradient>
</defs>
</svg>
