<svg width="305" height="29" viewBox="0 0 305 29" fill="none" xmlns="http://www.w3.org/2000/svg">
<path d="M202.652 22C204.033 22 205.152 20.8807 205.152 19.5C205.152 18.1193 204.033 17 202.652 17C201.272 17 200.152 18.1193 200.152 19.5C200.152 20.8807 201.272 22 202.652 22Z" fill="url(#paint0_linear_209_40281)"/>
<path d="M10.444 22.336C8.988 22.336 7.62533 22.0747 6.356 21.552C5.10533 21.0107 4.004 20.264 3.052 19.312C2.1 18.3414 1.35333 17.2027 0.812 15.896C0.270667 14.5707 0 13.124 0 11.556C0 9.98802 0.270667 8.55068 0.812 7.24402C1.35333 5.91868 2.1 4.78002 3.052 3.82802C4.004 2.85735 5.10533 2.11068 6.356 1.58802C7.62533 1.06535 8.988 0.804016 10.444 0.804016C11.9 0.804016 13.2533 1.07468 14.504 1.61602C15.7733 2.13868 16.884 2.88535 17.836 3.85602C18.788 4.80802 19.5347 5.93735 20.076 7.24402C20.6173 8.55068 20.888 9.98802 20.888 11.556C20.888 13.124 20.6173 14.5707 20.076 15.896C19.5347 17.2027 18.788 18.3414 17.836 19.312C16.884 20.264 15.7733 21.0107 14.504 21.552C13.2533 22.0747 11.9 22.336 10.444 22.336ZM10.444 20.236C11.6573 20.236 12.7587 20.012 13.748 19.564C14.756 19.116 15.624 18.4907 16.352 17.688C17.08 16.8854 17.64 15.9614 18.032 14.916C18.4427 13.8707 18.648 12.7507 18.648 11.556C18.648 10.38 18.4427 9.26935 18.032 8.22402C17.64 7.17868 17.08 6.25468 16.352 5.45202C15.624 4.64935 14.756 4.02402 13.748 3.57602C12.7587 3.12802 11.6573 2.90402 10.444 2.90402C9.23067 2.90402 8.12 3.12802 7.112 3.57602C6.12267 4.02402 5.264 4.64935 4.536 5.45202C3.808 6.25468 3.23867 7.17868 2.828 8.22402C2.436 9.26935 2.24 10.38 2.24 11.556C2.24 12.7507 2.436 13.8707 2.828 14.916C3.23867 15.9614 3.808 16.8854 4.536 17.688C5.264 18.4907 6.132 19.116 7.14 19.564C8.148 20.012 9.24933 20.236 10.444 20.236Z" fill="#222222"/>
<path d="M24.582 22V6.99202H26.682V9.45602L26.402 9.09202C26.7567 8.38268 27.2887 7.82268 27.998 7.41202C28.726 7.00135 29.6034 6.79602 30.63 6.79602H31.582V8.89602H30.266C29.1834 8.89602 28.3154 9.23202 27.662 9.90402C27.0087 10.576 26.682 11.528 26.682 12.76V22H24.582Z" fill="#222222"/>
<path d="M38.075 22.336C37.123 22.336 36.2736 22.1587 35.527 21.804C34.7803 21.4307 34.1923 20.9267 33.763 20.292C33.3336 19.6574 33.119 18.9293 33.119 18.108C33.119 17.324 33.287 16.6147 33.623 15.98C33.959 15.3267 34.4816 14.776 35.191 14.328C35.9003 13.88 36.8056 13.5627 37.907 13.376L43.787 12.396V14.3L38.411 15.196C37.3283 15.3827 36.5443 15.728 36.059 16.232C35.5923 16.736 35.359 17.3334 35.359 18.024C35.359 18.696 35.6203 19.2654 36.143 19.732C36.6843 20.1987 37.375 20.432 38.215 20.432C39.2416 20.432 40.1376 20.2174 40.903 19.788C41.6683 19.34 42.2656 18.7427 42.695 17.996C43.1243 17.2494 43.339 16.4187 43.339 15.504V11.696C43.339 10.8 43.0123 10.072 42.359 9.51202C41.7056 8.95202 40.8563 8.67202 39.811 8.67202C38.8963 8.67202 38.0936 8.90535 37.403 9.37202C36.7123 9.82002 36.199 10.408 35.863 11.136L33.959 10.1C34.239 9.46535 34.6776 8.88668 35.275 8.36402C35.891 7.84135 36.591 7.43068 37.375 7.13202C38.159 6.81468 38.971 6.65602 39.811 6.65602C40.9123 6.65602 41.883 6.87068 42.723 7.30002C43.5816 7.72935 44.2443 8.32668 44.711 9.09202C45.1963 9.83868 45.439 10.7067 45.439 11.696V22H43.339V19.004L43.647 19.312C43.3856 19.872 42.975 20.3853 42.415 20.852C41.8736 21.3 41.2296 21.664 40.483 21.944C39.755 22.2054 38.9523 22.336 38.075 22.336Z" fill="#222222"/>
<path d="M49.4504 22V6.99202H51.5504V9.90402L51.0744 9.79202C51.4477 8.82135 52.0544 8.05602 52.8944 7.49602C53.7531 6.93602 54.7424 6.65602 55.8624 6.65602C56.9264 6.65602 57.8784 6.89868 58.7184 7.38402C59.5771 7.86935 60.2491 8.54135 60.7344 9.40002C61.2384 10.24 61.4904 11.192 61.4904 12.256V22H59.3904V13.068C59.3904 12.1534 59.2224 11.3787 58.8864 10.744C58.5691 10.1094 58.1117 9.62402 57.5144 9.28802C56.9357 8.93335 56.2637 8.75602 55.4984 8.75602C54.7331 8.75602 54.0517 8.93335 53.4544 9.28802C52.8571 9.62402 52.3904 10.1187 52.0544 10.772C51.7184 11.4067 51.5504 12.172 51.5504 13.068V22H49.4504Z" fill="#222222"/>
<path d="M72.3052 28.16C71.2785 28.16 70.3265 28.0014 69.4492 27.684C68.5905 27.3667 67.8438 26.928 67.2092 26.368C66.5932 25.8267 66.1172 25.192 65.7812 24.464L67.7132 23.428C68.0119 24.1374 68.5439 24.7534 69.3092 25.276C70.0745 25.7987 71.0545 26.06 72.2492 26.06C73.1638 26.06 74.0039 25.8827 74.7692 25.528C75.5345 25.1734 76.1505 24.6507 76.6172 23.96C77.0839 23.2694 77.3172 22.42 77.3172 21.412V18.08L77.6532 18.388C77.1305 19.4707 76.3559 20.3107 75.3292 20.908C74.3025 21.4867 73.1825 21.776 71.9692 21.776C70.5692 21.776 69.3092 21.44 68.1892 20.768C67.0692 20.096 66.1825 19.1907 65.5292 18.052C64.8945 16.8947 64.5772 15.616 64.5772 14.216C64.5772 12.7974 64.8945 11.5187 65.5292 10.38C66.1825 9.24135 67.0599 8.33602 68.1612 7.66402C69.2812 6.99202 70.5505 6.65602 71.9692 6.65602C73.1825 6.65602 74.2839 6.93602 75.2732 7.49602C76.2812 8.05602 77.0745 8.81202 77.6532 9.76402L77.3172 10.352V6.99202H79.4172V21.412C79.4172 22.7 79.1092 23.848 78.4932 24.856C77.8959 25.8827 77.0558 26.6854 75.9732 27.264C74.9092 27.8614 73.6865 28.16 72.3052 28.16ZM72.0812 19.676C73.0518 19.676 73.9292 19.4333 74.7132 18.948C75.4972 18.444 76.1225 17.7813 76.5892 16.96C77.0745 16.12 77.3172 15.2054 77.3172 14.216C77.3172 13.2267 77.0745 12.3213 76.5892 11.5C76.1225 10.66 75.4972 9.99735 74.7132 9.51202C73.9292 9.00802 73.0518 8.75602 72.0812 8.75602C71.0919 8.75602 70.1959 9.00802 69.3932 9.51202C68.5905 9.99735 67.9559 10.6507 67.4892 11.472C67.0412 12.2933 66.8172 13.208 66.8172 14.216C66.8172 15.2054 67.0412 16.12 67.4892 16.96C67.9559 17.7813 68.5812 18.444 69.3652 18.948C70.1679 19.4333 71.0732 19.676 72.0812 19.676Z" fill="#222222"/>
<path d="M90.2562 22.336C88.8562 22.336 87.5869 22 86.4482 21.328C85.3282 20.6374 84.4416 19.6947 83.7882 18.5C83.1349 17.3054 82.8083 15.952 82.8083 14.44C82.8083 12.928 83.1256 11.5934 83.7602 10.436C84.3949 9.26002 85.2536 8.33602 86.3363 7.66402C87.4376 6.99202 88.6696 6.65602 90.0322 6.65602C91.1149 6.65602 92.0763 6.86135 92.9163 7.27202C93.7749 7.66402 94.5029 8.20535 95.1003 8.89602C95.6976 9.56802 96.1549 10.3334 96.4723 11.192C96.7896 12.032 96.9482 12.9 96.9482 13.796C96.9482 13.9827 96.9389 14.1974 96.9202 14.44C96.9016 14.664 96.8736 14.8973 96.8363 15.14H84.1523V13.18H95.6322L94.6243 14.02C94.7923 12.9933 94.6709 12.0787 94.2602 11.276C93.8682 10.4547 93.2989 9.81068 92.5523 9.34402C91.8056 8.85868 90.9656 8.61602 90.0322 8.61602C89.0989 8.61602 88.2309 8.85868 87.4283 9.34402C86.6443 9.82935 86.0283 10.5107 85.5803 11.388C85.1323 12.2467 84.9549 13.2733 85.0482 14.468C84.9549 15.6627 85.1416 16.708 85.6082 17.604C86.0936 18.4813 86.7469 19.1627 87.5683 19.648C88.4082 20.1334 89.3042 20.376 90.2562 20.376C91.3576 20.376 92.2816 20.1147 93.0283 19.592C93.7749 19.0693 94.3816 18.416 94.8483 17.632L96.6403 18.584C96.3416 19.256 95.8842 19.8813 95.2682 20.46C94.6523 21.02 93.9149 21.4774 93.0563 21.832C92.2162 22.168 91.2829 22.336 90.2562 22.336Z" fill="#222222"/>
<path d="M110.479 22.336C109.023 22.336 107.66 22.0747 106.391 21.552C105.14 21.0107 104.039 20.264 103.087 19.312C102.135 18.3414 101.388 17.2027 100.847 15.896C100.305 14.5707 100.035 13.124 100.035 11.556C100.035 9.98802 100.305 8.55068 100.847 7.24402C101.388 5.91868 102.135 4.78002 103.087 3.82802C104.039 2.85735 105.14 2.11068 106.391 1.58802C107.66 1.06535 109.023 0.804016 110.479 0.804016C111.935 0.804016 113.288 1.07468 114.539 1.61602C115.808 2.13868 116.919 2.88535 117.871 3.85602C118.823 4.80802 119.569 5.93735 120.111 7.24402C120.652 8.55068 120.923 9.98802 120.923 11.556C120.923 13.124 120.652 14.5707 120.111 15.896C119.569 17.2027 118.823 18.3414 117.871 19.312C116.919 20.264 115.808 21.0107 114.539 21.552C113.288 22.0747 111.935 22.336 110.479 22.336ZM110.479 20.236C111.692 20.236 112.793 20.012 113.783 19.564C114.791 19.116 115.659 18.4907 116.387 17.688C117.115 16.8854 117.675 15.9614 118.067 14.916C118.477 13.8707 118.683 12.7507 118.683 11.556C118.683 10.38 118.477 9.26935 118.067 8.22402C117.675 7.17868 117.115 6.25468 116.387 5.45202C115.659 4.64935 114.791 4.02402 113.783 3.57602C112.793 3.12802 111.692 2.90402 110.479 2.90402C109.265 2.90402 108.155 3.12802 107.147 3.57602C106.157 4.02402 105.299 4.64935 104.571 5.45202C103.843 6.25468 103.273 7.17868 102.863 8.22402C102.471 9.26935 102.275 10.38 102.275 11.556C102.275 12.7507 102.471 13.8707 102.863 14.916C103.273 15.9614 103.843 16.8854 104.571 17.688C105.299 18.4907 106.167 19.116 107.175 19.564C108.183 20.012 109.284 20.236 110.479 20.236Z" fill="#222222"/>
<path d="M124.617 22V6.99202H126.717V9.45602L126.437 9.09202C126.792 8.38268 127.324 7.82268 128.033 7.41202C128.761 7.00135 129.638 6.79602 130.665 6.79602H131.617V8.89602H130.301C129.218 8.89602 128.35 9.23202 127.697 9.90402C127.044 10.576 126.717 11.528 126.717 12.76V22H124.617Z" fill="#222222"/>
<path d="M138.11 22.336C137.158 22.336 136.308 22.1587 135.562 21.804C134.815 21.4307 134.227 20.9267 133.798 20.292C133.368 19.6574 133.154 18.9293 133.154 18.108C133.154 17.324 133.322 16.6147 133.658 15.98C133.994 15.3267 134.516 14.776 135.226 14.328C135.935 13.88 136.84 13.5627 137.942 13.376L143.822 12.396V14.3L138.446 15.196C137.363 15.3827 136.579 15.728 136.094 16.232C135.627 16.736 135.394 17.3334 135.394 18.024C135.394 18.696 135.655 19.2654 136.178 19.732C136.719 20.1987 137.41 20.432 138.25 20.432C139.276 20.432 140.172 20.2174 140.938 19.788C141.703 19.34 142.3 18.7427 142.73 17.996C143.159 17.2494 143.374 16.4187 143.374 15.504V11.696C143.374 10.8 143.047 10.072 142.394 9.51202C141.74 8.95202 140.891 8.67202 139.846 8.67202C138.931 8.67202 138.128 8.90535 137.438 9.37202C136.747 9.82002 136.234 10.408 135.898 11.136L133.994 10.1C134.274 9.46535 134.712 8.88668 135.31 8.36402C135.926 7.84135 136.626 7.43068 137.41 7.13202C138.194 6.81468 139.006 6.65602 139.846 6.65602C140.947 6.65602 141.918 6.87068 142.758 7.30002C143.616 7.72935 144.279 8.32668 144.746 9.09202C145.231 9.83868 145.474 10.7067 145.474 11.696V22H143.374V19.004L143.682 19.312C143.42 19.872 143.01 20.3853 142.45 20.852C141.908 21.3 141.264 21.664 140.518 21.944C139.79 22.2054 138.987 22.336 138.11 22.336Z" fill="#222222"/>
<path d="M149.485 22V6.99202H151.585V9.90402L151.109 9.79202C151.483 8.82135 152.089 8.05602 152.929 7.49602C153.788 6.93602 154.777 6.65602 155.897 6.65602C156.961 6.65602 157.913 6.89868 158.753 7.38402C159.612 7.86935 160.284 8.54135 160.769 9.40002C161.273 10.24 161.525 11.192 161.525 12.256V22H159.425V13.068C159.425 12.1534 159.257 11.3787 158.921 10.744C158.604 10.1094 158.147 9.62402 157.549 9.28802C156.971 8.93335 156.299 8.75602 155.533 8.75602C154.768 8.75602 154.087 8.93335 153.489 9.28802C152.892 9.62402 152.425 10.1187 152.089 10.772C151.753 11.4067 151.585 12.172 151.585 13.068V22H149.485Z" fill="#222222"/>
<path d="M172.34 28.16C171.313 28.16 170.361 28.0014 169.484 27.684C168.625 27.3667 167.879 26.928 167.244 26.368C166.628 25.8267 166.152 25.192 165.816 24.464L167.748 23.428C168.047 24.1374 168.579 24.7534 169.344 25.276C170.109 25.7987 171.089 26.06 172.284 26.06C173.199 26.06 174.039 25.8827 174.804 25.528C175.569 25.1734 176.185 24.6507 176.652 23.96C177.119 23.2694 177.352 22.42 177.352 21.412V18.08L177.688 18.388C177.165 19.4707 176.391 20.3107 175.364 20.908C174.337 21.4867 173.217 21.776 172.004 21.776C170.604 21.776 169.344 21.44 168.224 20.768C167.104 20.096 166.217 19.1907 165.564 18.052C164.929 16.8947 164.612 15.616 164.612 14.216C164.612 12.7974 164.929 11.5187 165.564 10.38C166.217 9.24135 167.095 8.33602 168.196 7.66402C169.316 6.99202 170.585 6.65602 172.004 6.65602C173.217 6.65602 174.319 6.93602 175.308 7.49602C176.316 8.05602 177.109 8.81202 177.688 9.76402L177.352 10.352V6.99202H179.452V21.412C179.452 22.7 179.144 23.848 178.528 24.856C177.931 25.8827 177.091 26.6854 176.008 27.264C174.944 27.8614 173.721 28.16 172.34 28.16ZM172.116 19.676C173.087 19.676 173.964 19.4333 174.748 18.948C175.532 18.444 176.157 17.7813 176.624 16.96C177.109 16.12 177.352 15.2054 177.352 14.216C177.352 13.2267 177.109 12.3213 176.624 11.5C176.157 10.66 175.532 9.99735 174.748 9.51202C173.964 9.00802 173.087 8.75602 172.116 8.75602C171.127 8.75602 170.231 9.00802 169.428 9.51202C168.625 9.99735 167.991 10.6507 167.524 11.472C167.076 12.2933 166.852 13.208 166.852 14.216C166.852 15.2054 167.076 16.12 167.524 16.96C167.991 17.7813 168.616 18.444 169.4 18.948C170.203 19.4333 171.108 19.676 172.116 19.676Z" fill="#222222"/>
<path d="M190.291 22.336C188.891 22.336 187.622 22 186.483 21.328C185.363 20.6374 184.476 19.6947 183.823 18.5C183.17 17.3054 182.843 15.952 182.843 14.44C182.843 12.928 183.16 11.5934 183.795 10.436C184.43 9.26002 185.288 8.33602 186.371 7.66402C187.472 6.99202 188.704 6.65602 190.067 6.65602C191.15 6.65602 192.111 6.86135 192.951 7.27202C193.81 7.66402 194.538 8.20535 195.135 8.89602C195.732 9.56802 196.19 10.3334 196.507 11.192C196.824 12.032 196.983 12.9 196.983 13.796C196.983 13.9827 196.974 14.1974 196.955 14.44C196.936 14.664 196.908 14.8973 196.871 15.14H184.187V13.18H195.667L194.659 14.02C194.827 12.9933 194.706 12.0787 194.295 11.276C193.903 10.4547 193.334 9.81068 192.587 9.34402C191.84 8.85868 191 8.61602 190.067 8.61602C189.134 8.61602 188.266 8.85868 187.463 9.34402C186.679 9.82935 186.063 10.5107 185.615 11.388C185.167 12.2467 184.99 13.2733 185.083 14.468C184.99 15.6627 185.176 16.708 185.643 17.604C186.128 18.4813 186.782 19.1627 187.603 19.648C188.443 20.1334 189.339 20.376 190.291 20.376C191.392 20.376 192.316 20.1147 193.063 19.592C193.81 19.0693 194.416 18.416 194.883 17.632L196.675 18.584C196.376 19.256 195.919 19.8813 195.303 20.46C194.687 21.02 193.95 21.4774 193.091 21.832C192.251 22.168 191.318 22.336 190.291 22.336Z" fill="#222222"/>
<path d="M213.617 22.336C212.665 22.336 211.816 22.1587 211.069 21.804C210.323 21.4307 209.735 20.9267 209.305 20.292C208.876 19.6574 208.661 18.9293 208.661 18.108C208.661 17.324 208.829 16.6147 209.165 15.98C209.501 15.3267 210.024 14.776 210.733 14.328C211.443 13.88 212.348 13.5627 213.449 13.376L219.329 12.396V14.3L213.953 15.196C212.871 15.3827 212.087 15.728 211.601 16.232C211.135 16.736 210.901 17.3334 210.901 18.024C210.901 18.696 211.163 19.2654 211.685 19.732C212.227 20.1987 212.917 20.432 213.757 20.432C214.784 20.432 215.68 20.2174 216.445 19.788C217.211 19.34 217.808 18.7427 218.237 17.996C218.667 17.2494 218.881 16.4187 218.881 15.504V11.696C218.881 10.8 218.555 10.072 217.901 9.51202C217.248 8.95202 216.399 8.67202 215.353 8.67202C214.439 8.67202 213.636 8.90535 212.945 9.37202C212.255 9.82002 211.741 10.408 211.405 11.136L209.501 10.1C209.781 9.46535 210.22 8.88668 210.817 8.36402C211.433 7.84135 212.133 7.43068 212.917 7.13202C213.701 6.81468 214.513 6.65602 215.353 6.65602C216.455 6.65602 217.425 6.87068 218.265 7.30002C219.124 7.72935 219.787 8.32668 220.253 9.09202C220.739 9.83868 220.981 10.7067 220.981 11.696V22H218.881V19.004L219.189 19.312C218.928 19.872 218.517 20.3853 217.957 20.852C217.416 21.3 216.772 21.664 216.025 21.944C215.297 22.2054 214.495 22.336 213.617 22.336Z" fill="#222222"/>
<path d="M232.105 28.16C231.078 28.16 230.126 28.0014 229.249 27.684C228.39 27.3667 227.643 26.928 227.009 26.368C226.393 25.8267 225.917 25.192 225.581 24.464L227.513 23.428C227.811 24.1374 228.343 24.7534 229.109 25.276C229.874 25.7987 230.854 26.06 232.049 26.06C232.963 26.06 233.803 25.8827 234.569 25.528C235.334 25.1734 235.95 24.6507 236.417 23.96C236.883 23.2694 237.117 22.42 237.117 21.412V18.08L237.453 18.388C236.93 19.4707 236.155 20.3107 235.129 20.908C234.102 21.4867 232.982 21.776 231.769 21.776C230.369 21.776 229.109 21.44 227.989 20.768C226.869 20.096 225.982 19.1907 225.329 18.052C224.694 16.8947 224.377 15.616 224.377 14.216C224.377 12.7974 224.694 11.5187 225.329 10.38C225.982 9.24135 226.859 8.33602 227.961 7.66402C229.081 6.99202 230.35 6.65602 231.769 6.65602C232.982 6.65602 234.083 6.93602 235.073 7.49602C236.081 8.05602 236.874 8.81202 237.453 9.76402L237.117 10.352V6.99202H239.217V21.412C239.217 22.7 238.909 23.848 238.293 24.856C237.695 25.8827 236.855 26.6854 235.773 27.264C234.709 27.8614 233.486 28.16 232.105 28.16ZM231.881 19.676C232.851 19.676 233.729 19.4333 234.513 18.948C235.297 18.444 235.922 17.7813 236.389 16.96C236.874 16.12 237.117 15.2054 237.117 14.216C237.117 13.2267 236.874 12.3213 236.389 11.5C235.922 10.66 235.297 9.99735 234.513 9.51202C233.729 9.00802 232.851 8.75602 231.881 8.75602C230.891 8.75602 229.995 9.00802 229.193 9.51202C228.39 9.99735 227.755 10.6507 227.289 11.472C226.841 12.2933 226.617 13.208 226.617 14.216C226.617 15.2054 226.841 16.12 227.289 16.96C227.755 17.7813 228.381 18.444 229.165 18.948C229.967 19.4333 230.873 19.676 231.881 19.676Z" fill="#222222"/>
<path d="M250.056 22.336C248.656 22.336 247.386 22 246.248 21.328C245.128 20.6374 244.241 19.6947 243.588 18.5C242.934 17.3054 242.608 15.952 242.608 14.44C242.608 12.928 242.925 11.5934 243.56 10.436C244.194 9.26002 245.053 8.33602 246.136 7.66402C247.237 6.99202 248.469 6.65602 249.832 6.65602C250.914 6.65602 251.876 6.86135 252.716 7.27202C253.574 7.66402 254.302 8.20535 254.9 8.89602C255.497 9.56802 255.954 10.3334 256.272 11.192C256.589 12.032 256.748 12.9 256.748 13.796C256.748 13.9827 256.738 14.1974 256.72 14.44C256.701 14.664 256.673 14.8973 256.636 15.14H243.952V13.18H255.432L254.424 14.02C254.592 12.9933 254.47 12.0787 254.06 11.276C253.668 10.4547 253.098 9.81068 252.352 9.34402C251.605 8.85868 250.765 8.61602 249.832 8.61602C248.898 8.61602 248.03 8.85868 247.228 9.34402C246.444 9.82935 245.828 10.5107 245.38 11.388C244.932 12.2467 244.754 13.2733 244.848 14.468C244.754 15.6627 244.941 16.708 245.408 17.604C245.893 18.4813 246.546 19.1627 247.368 19.648C248.208 20.1334 249.104 20.376 250.056 20.376C251.157 20.376 252.081 20.1147 252.828 19.592C253.574 19.0693 254.181 18.416 254.648 17.632L256.44 18.584C256.141 19.256 255.684 19.8813 255.068 20.46C254.452 21.02 253.714 21.4774 252.856 21.832C252.016 22.168 251.082 22.336 250.056 22.336Z" fill="#222222"/>
<path d="M260.142 22V6.99202H262.242V9.90402L261.766 9.79202C262.14 8.82135 262.746 8.05602 263.586 7.49602C264.445 6.93602 265.434 6.65602 266.554 6.65602C267.618 6.65602 268.57 6.89868 269.41 7.38402C270.269 7.86935 270.941 8.54135 271.426 9.40002C271.93 10.24 272.182 11.192 272.182 12.256V22H270.082V13.068C270.082 12.1534 269.914 11.3787 269.578 10.744C269.261 10.1094 268.804 9.62402 268.206 9.28802C267.628 8.93335 266.956 8.75602 266.19 8.75602C265.425 8.75602 264.744 8.93335 264.146 9.28802C263.549 9.62402 263.082 10.1187 262.746 10.772C262.41 11.4067 262.242 12.172 262.242 13.068V22H260.142Z" fill="#222222"/>
<path d="M282.745 22.336C281.27 22.336 279.973 21.9907 278.853 21.3C277.733 20.6094 276.856 19.676 276.221 18.5C275.586 17.3054 275.269 15.9613 275.269 14.468C275.269 12.9747 275.586 11.64 276.221 10.464C276.856 9.28802 277.733 8.36402 278.853 7.69202C279.973 7.00135 281.27 6.65602 282.745 6.65602C283.678 6.65602 284.556 6.82402 285.377 7.16002C286.198 7.49602 286.926 7.95335 287.561 8.53202C288.196 9.09202 288.672 9.74535 288.989 10.492L287.085 11.472C286.712 10.6693 286.142 10.016 285.377 9.51202C284.612 9.00802 283.734 8.75602 282.745 8.75602C281.756 8.75602 280.86 9.00802 280.057 9.51202C279.273 9.99735 278.648 10.6787 278.181 11.556C277.733 12.4147 277.509 13.3947 277.509 14.496C277.509 15.5787 277.733 16.5587 278.181 17.436C278.648 18.2947 279.273 18.976 280.057 19.48C280.86 19.984 281.756 20.236 282.745 20.236C283.734 20.236 284.602 19.984 285.349 19.48C286.114 18.976 286.693 18.304 287.085 17.464L288.989 18.5C288.672 19.228 288.196 19.8813 287.561 20.46C286.926 21.0387 286.198 21.496 285.377 21.832C284.556 22.168 283.678 22.336 282.745 22.336Z" fill="#222222"/>
<path d="M292.674 28.16C292.375 28.16 292.068 28.132 291.75 28.076C291.452 28.0387 291.153 27.964 290.854 27.852V25.892C291.041 25.9107 291.274 25.9387 291.554 25.976C291.853 26.032 292.151 26.06 292.45 26.06C293.365 26.06 294.065 25.864 294.55 25.472C295.035 25.0987 295.512 24.3707 295.978 23.288L296.93 21.048L296.874 22.896L290.518 6.99202H292.786L297.994 20.124H297.406L302.586 6.99202H304.91L298.05 23.904C297.751 24.632 297.369 25.3227 296.902 25.976C296.454 26.6294 295.885 27.152 295.194 27.544C294.504 27.9547 293.663 28.16 292.674 28.16Z" fill="#222222"/>
<defs>
<linearGradient id="paint0_linear_209_40281" x1="199.33" y1="21.1749" x2="204.829" y2="18.4029" gradientUnits="userSpaceOnUse">
<stop stop-color="#FFE32A"/>
<stop offset="0.5054" stop-color="#FFAA00"/>
<stop offset="1" stop-color="#FF4700"/>
</linearGradient>
</defs>
</svg>
