<svg width="795" height="150" viewBox="0 0 795 150" fill="none" xmlns="http://www.w3.org/2000/svg">
<mask id="path-1-inside-1_533_69206" fill="white">
<path d="M11.16 94.44H47.4V105H0V21H11.16V94.44ZM104.13 45H114.57V105H104.13V94.68C98.93 102.6 91.37 106.56 81.45 106.56C73.05 106.56 65.89 103.52 59.97 97.44C54.05 91.28 51.09 83.8 51.09 75C51.09 66.2 54.05 58.76 59.97 52.68C65.89 46.52 73.05 43.44 81.45 43.44C91.37 43.44 98.93 47.4 104.13 55.32V45ZM82.77 96.48C88.85 96.48 93.93 94.44 98.01 90.36C102.09 86.2 104.13 81.08 104.13 75C104.13 68.92 102.09 63.84 98.01 59.76C93.93 55.6 88.85 53.52 82.77 53.52C76.77 53.52 71.73 55.6 67.65 59.76C63.57 63.84 61.53 68.92 61.53 75C61.53 81.08 63.57 86.2 67.65 90.36C71.73 94.44 76.77 96.48 82.77 96.48ZM159.548 43.44C166.588 43.44 172.227 45.68 176.467 50.16C180.707 54.56 182.827 60.56 182.827 68.16V105H172.387V68.76C172.387 63.88 171.068 60.12 168.428 57.48C165.788 54.76 162.147 53.4 157.507 53.4C152.307 53.4 148.108 55.04 144.908 58.32C141.708 61.52 140.107 66.48 140.107 73.2V105H129.667V45H140.107V53.64C144.347 46.84 150.827 43.44 159.548 43.44ZM246.362 21H256.802V105H246.362V94.68C241.162 102.6 233.602 106.56 223.682 106.56C215.282 106.56 208.122 103.52 202.202 97.44C196.282 91.28 193.322 83.8 193.322 75C193.322 66.2 196.282 58.76 202.202 52.68C208.122 46.52 215.282 43.44 223.682 43.44C233.602 43.44 241.162 47.4 246.362 55.32V21ZM225.002 96.48C231.082 96.48 236.162 94.44 240.242 90.36C244.322 86.2 246.362 81.08 246.362 75C246.362 68.92 244.322 63.84 240.242 59.76C236.162 55.6 231.082 53.52 225.002 53.52C219.002 53.52 213.962 55.6 209.882 59.76C205.802 63.84 203.762 68.92 203.762 75C203.762 81.08 205.802 86.2 209.882 90.36C213.962 94.44 219.002 96.48 225.002 96.48ZM277.179 34.08C275.179 34.08 273.499 33.4 272.139 32.04C270.779 30.68 270.099 29.04 270.099 27.12C270.099 25.2 270.779 23.56 272.139 22.2C273.499 20.76 275.179 20.04 277.179 20.04C279.099 20.04 280.739 20.76 282.099 22.2C283.459 23.56 284.139 25.2 284.139 27.12C284.139 29.04 283.459 30.68 282.099 32.04C280.739 33.4 279.099 34.08 277.179 34.08ZM271.899 105V45H282.339V105H271.899ZM327.427 43.44C334.467 43.44 340.107 45.68 344.347 50.16C348.587 54.56 350.707 60.56 350.707 68.16V105H340.267V68.76C340.267 63.88 338.947 60.12 336.307 57.48C333.667 54.76 330.027 53.4 325.387 53.4C320.187 53.4 315.987 55.04 312.787 58.32C309.587 61.52 307.987 66.48 307.987 73.2V105H297.547V45H307.987V53.64C312.227 46.84 318.707 43.44 327.427 43.44ZM414.361 45H424.681V102.48C424.681 111.36 421.681 118.24 415.681 123.12C409.681 128.08 402.481 130.56 394.081 130.56C387.361 130.56 381.561 129.28 376.681 126.72C371.801 124.24 368.121 120.64 365.641 115.92L374.761 110.76C378.041 117.48 384.561 120.84 394.321 120.84C400.561 120.84 405.441 119.2 408.961 115.92C412.561 112.64 414.361 108.16 414.361 102.48V93.96C409.081 101.96 401.561 105.96 391.801 105.96C383.241 105.96 376.001 102.92 370.081 96.84C364.161 90.76 361.201 83.36 361.201 74.64C361.201 65.92 364.161 58.56 370.081 52.56C376.001 46.48 383.241 43.44 391.801 43.44C401.641 43.44 409.161 47.4 414.361 55.32V45ZM377.761 89.88C381.841 93.96 386.921 96 393.001 96C399.081 96 404.161 93.96 408.241 89.88C412.321 85.8 414.361 80.72 414.361 74.64C414.361 68.64 412.321 63.6 408.241 59.52C404.161 55.44 399.081 53.4 393.001 53.4C386.921 53.4 381.841 55.44 377.761 59.52C373.681 63.6 371.641 68.64 371.641 74.64C371.641 80.72 373.681 85.8 377.761 89.88ZM500.618 21C508.378 21 514.818 23.6 519.938 28.8C525.138 33.92 527.738 40.32 527.738 48C527.738 55.6 525.138 62 519.938 67.2C514.818 72.4 508.378 75 500.618 75H481.298V105H470.138V21H500.618ZM500.618 64.56C505.258 64.56 509.098 63 512.138 59.88C515.178 56.68 516.698 52.72 516.698 48C516.698 43.2 515.178 39.24 512.138 36.12C509.098 33 505.258 31.44 500.618 31.44H481.298V64.56H500.618ZM584.229 45H594.669V105H584.229V94.68C579.029 102.6 571.469 106.56 561.549 106.56C553.149 106.56 545.989 103.52 540.069 97.44C534.149 91.28 531.189 83.8 531.189 75C531.189 66.2 534.149 58.76 540.069 52.68C545.989 46.52 553.149 43.44 561.549 43.44C571.469 43.44 579.029 47.4 584.229 55.32V45ZM562.869 96.48C568.949 96.48 574.029 94.44 578.109 90.36C582.189 86.2 584.229 81.08 584.229 75C584.229 68.92 582.189 63.84 578.109 59.76C574.029 55.6 568.949 53.52 562.869 53.52C556.869 53.52 551.829 55.6 547.749 59.76C543.669 63.84 541.629 68.92 541.629 75C541.629 81.08 543.669 86.2 547.749 90.36C551.829 94.44 556.869 96.48 562.869 96.48ZM659.567 45H669.887V102.48C669.887 111.36 666.887 118.24 660.887 123.12C654.887 128.08 647.687 130.56 639.287 130.56C632.567 130.56 626.767 129.28 621.887 126.72C617.007 124.24 613.327 120.64 610.847 115.92L619.967 110.76C623.247 117.48 629.767 120.84 639.527 120.84C645.767 120.84 650.647 119.2 654.167 115.92C657.767 112.64 659.567 108.16 659.567 102.48V93.96C654.287 101.96 646.767 105.96 637.007 105.96C628.447 105.96 621.207 102.92 615.287 96.84C609.367 90.76 606.407 83.36 606.407 74.64C606.407 65.92 609.367 58.56 615.287 52.56C621.207 46.48 628.447 43.44 637.007 43.44C646.847 43.44 654.367 47.4 659.567 55.32V45ZM622.967 89.88C627.047 93.96 632.127 96 638.207 96C644.287 96 649.367 93.96 653.447 89.88C657.527 85.8 659.567 80.72 659.567 74.64C659.567 68.64 657.527 63.6 653.447 59.52C649.367 55.44 644.287 53.4 638.207 53.4C632.127 53.4 627.047 55.44 622.967 59.52C618.887 63.6 616.847 68.64 616.847 74.64C616.847 80.72 618.887 85.8 622.967 89.88ZM692.304 79.8C693.344 85.16 695.784 89.32 699.624 92.28C703.544 95.24 708.344 96.72 714.024 96.72C721.944 96.72 727.704 93.8 731.304 87.96L740.184 93C734.344 102.04 725.544 106.56 713.784 106.56C704.264 106.56 696.504 103.6 690.504 97.68C684.584 91.68 681.624 84.12 681.624 75C681.624 65.96 684.544 58.44 690.384 52.44C696.224 46.44 703.784 43.44 713.064 43.44C721.864 43.44 729.024 46.56 734.544 52.8C740.144 58.96 742.944 66.4 742.944 75.12C742.944 76.64 742.824 78.2 742.584 79.8H692.304ZM713.064 53.28C707.464 53.28 702.824 54.88 699.144 58.08C695.464 61.2 693.184 65.4 692.304 70.68H732.384C731.504 65 729.264 60.68 725.664 57.72C722.064 54.76 717.864 53.28 713.064 53.28ZM760.882 61.2C760.882 63.52 762.042 65.4 764.362 66.84C766.682 68.2 769.482 69.32 772.762 70.2C776.042 71 779.322 71.96 782.602 73.08C785.882 74.12 788.682 75.96 791.002 78.6C793.322 81.16 794.482 84.48 794.482 88.56C794.482 94 792.362 98.36 788.122 101.64C783.962 104.92 778.602 106.56 772.042 106.56C766.202 106.56 761.202 105.28 757.042 102.72C752.882 100.16 749.922 96.76 748.162 92.52L757.162 87.36C758.122 90.24 759.922 92.52 762.562 94.2C765.202 95.88 768.362 96.72 772.042 96.72C775.482 96.72 778.322 96.08 780.562 94.8C782.802 93.44 783.922 91.36 783.922 88.56C783.922 86.24 782.762 84.4 780.442 83.04C778.122 81.6 775.322 80.48 772.042 79.68C768.762 78.8 765.482 77.8 762.202 76.68C758.922 75.56 756.122 73.72 753.802 71.16C751.482 68.6 750.322 65.32 750.322 61.32C750.322 56.12 752.322 51.84 756.322 48.48C760.402 45.12 765.482 43.44 771.562 43.44C776.442 43.44 780.762 44.56 784.522 46.8C788.362 48.96 791.242 52 793.162 55.92L784.402 60.84C782.242 55.72 777.962 53.16 771.562 53.16C768.602 53.16 766.082 53.88 764.002 55.32C761.922 56.68 760.882 58.64 760.882 61.2Z"/>
</mask>
<path d="M11.16 94.44H47.4V105H0V21H11.16V94.44ZM104.13 45H114.57V105H104.13V94.68C98.93 102.6 91.37 106.56 81.45 106.56C73.05 106.56 65.89 103.52 59.97 97.44C54.05 91.28 51.09 83.8 51.09 75C51.09 66.2 54.05 58.76 59.97 52.68C65.89 46.52 73.05 43.44 81.45 43.44C91.37 43.44 98.93 47.4 104.13 55.32V45ZM82.77 96.48C88.85 96.48 93.93 94.44 98.01 90.36C102.09 86.2 104.13 81.08 104.13 75C104.13 68.92 102.09 63.84 98.01 59.76C93.93 55.6 88.85 53.52 82.77 53.52C76.77 53.52 71.73 55.6 67.65 59.76C63.57 63.84 61.53 68.92 61.53 75C61.53 81.08 63.57 86.2 67.65 90.36C71.73 94.44 76.77 96.48 82.77 96.48ZM159.548 43.44C166.588 43.44 172.227 45.68 176.467 50.16C180.707 54.56 182.827 60.56 182.827 68.16V105H172.387V68.76C172.387 63.88 171.068 60.12 168.428 57.48C165.788 54.76 162.147 53.4 157.507 53.4C152.307 53.4 148.108 55.04 144.908 58.32C141.708 61.52 140.107 66.48 140.107 73.2V105H129.667V45H140.107V53.64C144.347 46.84 150.827 43.44 159.548 43.44ZM246.362 21H256.802V105H246.362V94.68C241.162 102.6 233.602 106.56 223.682 106.56C215.282 106.56 208.122 103.52 202.202 97.44C196.282 91.28 193.322 83.8 193.322 75C193.322 66.2 196.282 58.76 202.202 52.68C208.122 46.52 215.282 43.44 223.682 43.44C233.602 43.44 241.162 47.4 246.362 55.32V21ZM225.002 96.48C231.082 96.48 236.162 94.44 240.242 90.36C244.322 86.2 246.362 81.08 246.362 75C246.362 68.92 244.322 63.84 240.242 59.76C236.162 55.6 231.082 53.52 225.002 53.52C219.002 53.52 213.962 55.6 209.882 59.76C205.802 63.84 203.762 68.92 203.762 75C203.762 81.08 205.802 86.2 209.882 90.36C213.962 94.44 219.002 96.48 225.002 96.48ZM277.179 34.08C275.179 34.08 273.499 33.4 272.139 32.04C270.779 30.68 270.099 29.04 270.099 27.12C270.099 25.2 270.779 23.56 272.139 22.2C273.499 20.76 275.179 20.04 277.179 20.04C279.099 20.04 280.739 20.76 282.099 22.2C283.459 23.56 284.139 25.2 284.139 27.12C284.139 29.04 283.459 30.68 282.099 32.04C280.739 33.4 279.099 34.08 277.179 34.08ZM271.899 105V45H282.339V105H271.899ZM327.427 43.44C334.467 43.44 340.107 45.68 344.347 50.16C348.587 54.56 350.707 60.56 350.707 68.16V105H340.267V68.76C340.267 63.88 338.947 60.12 336.307 57.48C333.667 54.76 330.027 53.4 325.387 53.4C320.187 53.4 315.987 55.04 312.787 58.32C309.587 61.52 307.987 66.48 307.987 73.2V105H297.547V45H307.987V53.64C312.227 46.84 318.707 43.44 327.427 43.44ZM414.361 45H424.681V102.48C424.681 111.36 421.681 118.24 415.681 123.12C409.681 128.08 402.481 130.56 394.081 130.56C387.361 130.56 381.561 129.28 376.681 126.72C371.801 124.24 368.121 120.64 365.641 115.92L374.761 110.76C378.041 117.48 384.561 120.84 394.321 120.84C400.561 120.84 405.441 119.2 408.961 115.92C412.561 112.64 414.361 108.16 414.361 102.48V93.96C409.081 101.96 401.561 105.96 391.801 105.96C383.241 105.96 376.001 102.92 370.081 96.84C364.161 90.76 361.201 83.36 361.201 74.64C361.201 65.92 364.161 58.56 370.081 52.56C376.001 46.48 383.241 43.44 391.801 43.44C401.641 43.44 409.161 47.4 414.361 55.32V45ZM377.761 89.88C381.841 93.96 386.921 96 393.001 96C399.081 96 404.161 93.96 408.241 89.88C412.321 85.8 414.361 80.72 414.361 74.64C414.361 68.64 412.321 63.6 408.241 59.52C404.161 55.44 399.081 53.4 393.001 53.4C386.921 53.4 381.841 55.44 377.761 59.52C373.681 63.6 371.641 68.64 371.641 74.64C371.641 80.72 373.681 85.8 377.761 89.88ZM500.618 21C508.378 21 514.818 23.6 519.938 28.8C525.138 33.92 527.738 40.32 527.738 48C527.738 55.6 525.138 62 519.938 67.2C514.818 72.4 508.378 75 500.618 75H481.298V105H470.138V21H500.618ZM500.618 64.56C505.258 64.56 509.098 63 512.138 59.88C515.178 56.68 516.698 52.72 516.698 48C516.698 43.2 515.178 39.24 512.138 36.12C509.098 33 505.258 31.44 500.618 31.44H481.298V64.56H500.618ZM584.229 45H594.669V105H584.229V94.68C579.029 102.6 571.469 106.56 561.549 106.56C553.149 106.56 545.989 103.52 540.069 97.44C534.149 91.28 531.189 83.8 531.189 75C531.189 66.2 534.149 58.76 540.069 52.68C545.989 46.52 553.149 43.44 561.549 43.44C571.469 43.44 579.029 47.4 584.229 55.32V45ZM562.869 96.48C568.949 96.48 574.029 94.44 578.109 90.36C582.189 86.2 584.229 81.08 584.229 75C584.229 68.92 582.189 63.84 578.109 59.76C574.029 55.6 568.949 53.52 562.869 53.52C556.869 53.52 551.829 55.6 547.749 59.76C543.669 63.84 541.629 68.92 541.629 75C541.629 81.08 543.669 86.2 547.749 90.36C551.829 94.44 556.869 96.48 562.869 96.48ZM659.567 45H669.887V102.48C669.887 111.36 666.887 118.24 660.887 123.12C654.887 128.08 647.687 130.56 639.287 130.56C632.567 130.56 626.767 129.28 621.887 126.72C617.007 124.24 613.327 120.64 610.847 115.92L619.967 110.76C623.247 117.48 629.767 120.84 639.527 120.84C645.767 120.84 650.647 119.2 654.167 115.92C657.767 112.64 659.567 108.16 659.567 102.48V93.96C654.287 101.96 646.767 105.96 637.007 105.96C628.447 105.96 621.207 102.92 615.287 96.84C609.367 90.76 606.407 83.36 606.407 74.64C606.407 65.92 609.367 58.56 615.287 52.56C621.207 46.48 628.447 43.44 637.007 43.44C646.847 43.44 654.367 47.4 659.567 55.32V45ZM622.967 89.88C627.047 93.96 632.127 96 638.207 96C644.287 96 649.367 93.96 653.447 89.88C657.527 85.8 659.567 80.72 659.567 74.64C659.567 68.64 657.527 63.6 653.447 59.52C649.367 55.44 644.287 53.4 638.207 53.4C632.127 53.4 627.047 55.44 622.967 59.52C618.887 63.6 616.847 68.64 616.847 74.64C616.847 80.72 618.887 85.8 622.967 89.88ZM692.304 79.8C693.344 85.16 695.784 89.32 699.624 92.28C703.544 95.24 708.344 96.72 714.024 96.72C721.944 96.72 727.704 93.8 731.304 87.96L740.184 93C734.344 102.04 725.544 106.56 713.784 106.56C704.264 106.56 696.504 103.6 690.504 97.68C684.584 91.68 681.624 84.12 681.624 75C681.624 65.96 684.544 58.44 690.384 52.44C696.224 46.44 703.784 43.44 713.064 43.44C721.864 43.44 729.024 46.56 734.544 52.8C740.144 58.96 742.944 66.4 742.944 75.12C742.944 76.64 742.824 78.2 742.584 79.8H692.304ZM713.064 53.28C707.464 53.28 702.824 54.88 699.144 58.08C695.464 61.2 693.184 65.4 692.304 70.68H732.384C731.504 65 729.264 60.68 725.664 57.72C722.064 54.76 717.864 53.28 713.064 53.28ZM760.882 61.2C760.882 63.52 762.042 65.4 764.362 66.84C766.682 68.2 769.482 69.32 772.762 70.2C776.042 71 779.322 71.96 782.602 73.08C785.882 74.12 788.682 75.96 791.002 78.6C793.322 81.16 794.482 84.48 794.482 88.56C794.482 94 792.362 98.36 788.122 101.64C783.962 104.92 778.602 106.56 772.042 106.56C766.202 106.56 761.202 105.28 757.042 102.72C752.882 100.16 749.922 96.76 748.162 92.52L757.162 87.36C758.122 90.24 759.922 92.52 762.562 94.2C765.202 95.88 768.362 96.72 772.042 96.72C775.482 96.72 778.322 96.08 780.562 94.8C782.802 93.44 783.922 91.36 783.922 88.56C783.922 86.24 782.762 84.4 780.442 83.04C778.122 81.6 775.322 80.48 772.042 79.68C768.762 78.8 765.482 77.8 762.202 76.68C758.922 75.56 756.122 73.72 753.802 71.16C751.482 68.6 750.322 65.32 750.322 61.32C750.322 56.12 752.322 51.84 756.322 48.48C760.402 45.12 765.482 43.44 771.562 43.44C776.442 43.44 780.762 44.56 784.522 46.8C788.362 48.96 791.242 52 793.162 55.92L784.402 60.84C782.242 55.72 777.962 53.16 771.562 53.16C768.602 53.16 766.082 53.88 764.002 55.32C761.922 56.68 760.882 58.64 760.882 61.2Z" stroke="black" stroke-width="2" mask="url(#path-1-inside-1_533_69206)"/>
</svg>
