<svg width="1086" height="150" viewBox="0 0 1086 150" fill="none" xmlns="http://www.w3.org/2000/svg">
<mask id="path-1-inside-1_533_69203" fill="white">
<path d="M78.6 20.6V104.6H67.56V38.96L40.08 84.68H38.64L11.16 39.08V104.6H0V20.6H12.6L39.36 65L66 20.6H78.6ZM145.402 97.04C139.242 103.12 131.763 106.16 122.963 106.16C114.163 106.16 106.682 103.12 100.522 97.04C94.4425 90.96 91.4025 83.48 91.4025 74.6C91.4025 65.72 94.4425 58.24 100.522 52.16C106.682 46.08 114.163 43.04 122.963 43.04C131.763 43.04 139.242 46.08 145.402 52.16C151.562 58.24 154.643 65.72 154.643 74.6C154.643 83.48 151.562 90.96 145.402 97.04ZM122.963 95.96C128.963 95.96 134.003 93.92 138.083 89.84C142.163 85.76 144.202 80.68 144.202 74.6C144.202 68.52 142.163 63.44 138.083 59.36C134.003 55.28 128.963 53.24 122.963 53.24C117.043 53.24 112.043 55.28 107.963 59.36C103.883 63.44 101.842 68.52 101.842 74.6C101.842 80.68 103.883 85.76 107.963 89.84C112.043 93.92 117.043 95.96 122.963 95.96ZM199.35 43.04C207.75 43.04 214.91 46.12 220.83 52.28C226.75 58.36 229.71 65.8 229.71 74.6C229.71 83.4 226.75 90.88 220.83 97.04C214.91 103.12 207.75 106.16 199.35 106.16C189.43 106.16 181.87 102.2 176.67 94.28V104.6H166.23V20.6H176.67V54.92C181.87 47 189.43 43.04 199.35 43.04ZM198.03 96.08C204.03 96.08 209.07 94.04 213.15 89.96C217.23 85.8 219.27 80.68 219.27 74.6C219.27 68.52 217.23 63.44 213.15 59.36C209.07 55.2 204.03 53.12 198.03 53.12C191.95 53.12 186.87 55.2 182.79 59.36C178.71 63.44 176.67 68.52 176.67 74.6C176.67 80.68 178.71 85.8 182.79 89.96C186.87 94.04 191.95 96.08 198.03 96.08ZM246.727 33.68C244.727 33.68 243.047 33 241.688 31.64C240.327 30.28 239.647 28.64 239.647 26.72C239.647 24.8 240.327 23.16 241.688 21.8C243.047 20.36 244.727 19.64 246.727 19.64C248.647 19.64 250.287 20.36 251.647 21.8C253.007 23.16 253.688 24.8 253.688 26.72C253.688 28.64 253.007 30.28 251.647 31.64C250.287 33 248.647 33.68 246.727 33.68ZM241.447 104.6V44.6H251.887V104.6H241.447ZM267.095 104.6V17H277.535V104.6H267.095ZM300.062 79.4C301.102 84.76 303.542 88.92 307.382 91.88C311.302 94.84 316.102 96.32 321.782 96.32C329.702 96.32 335.462 93.4 339.062 87.56L347.942 92.6C342.102 101.64 333.302 106.16 321.542 106.16C312.022 106.16 304.262 103.2 298.262 97.28C292.342 91.28 289.382 83.72 289.382 74.6C289.382 65.56 292.302 58.04 298.142 52.04C303.982 46.04 311.542 43.04 320.822 43.04C329.622 43.04 336.782 46.16 342.302 52.4C347.902 58.56 350.702 66 350.702 74.72C350.702 76.24 350.582 77.8 350.342 79.4H300.062ZM320.822 52.88C315.222 52.88 310.582 54.48 306.902 57.68C303.222 60.8 300.942 65 300.062 70.28H340.142C339.262 64.6 337.022 60.28 333.422 57.32C329.822 54.36 325.622 52.88 320.822 52.88ZM447.663 104.6L440.823 85.76H403.023L396.183 104.6H384.303L415.623 20.6H428.223L459.543 104.6H447.663ZM406.863 75.32H436.983L421.863 33.92L406.863 75.32ZM500.772 43.04C509.172 43.04 516.332 46.12 522.252 52.28C528.172 58.36 531.132 65.8 531.132 74.6C531.132 83.4 528.172 90.88 522.252 97.04C516.332 103.12 509.172 106.16 500.772 106.16C490.852 106.16 483.292 102.2 478.092 94.28V128.6H467.652V44.6H478.092V54.92C483.292 47 490.852 43.04 500.772 43.04ZM499.452 96.08C505.452 96.08 510.492 94.04 514.572 89.96C518.652 85.8 520.692 80.68 520.692 74.6C520.692 68.52 518.652 63.44 514.572 59.36C510.492 55.2 505.452 53.12 499.452 53.12C493.372 53.12 488.292 55.2 484.212 59.36C480.132 63.44 478.092 68.52 478.092 74.6C478.092 80.68 480.132 85.8 484.212 89.96C488.292 94.04 493.372 96.08 499.452 96.08ZM575.99 43.04C584.39 43.04 591.55 46.12 597.47 52.28C603.39 58.36 606.35 65.8 606.35 74.6C606.35 83.4 603.39 90.88 597.47 97.04C591.55 103.12 584.39 106.16 575.99 106.16C566.07 106.16 558.51 102.2 553.31 94.28V128.6H542.87V44.6H553.31V54.92C558.51 47 566.07 43.04 575.99 43.04ZM574.67 96.08C580.67 96.08 585.71 94.04 589.79 89.96C593.87 85.8 595.91 80.68 595.91 74.6C595.91 68.52 593.87 63.44 589.79 59.36C585.71 55.2 580.67 53.12 574.67 53.12C568.59 53.12 563.51 55.2 559.43 59.36C555.35 63.44 553.31 68.52 553.31 74.6C553.31 80.68 555.35 85.8 559.43 89.96C563.51 94.04 568.59 96.08 574.67 96.08ZM618.087 104.6V17H628.527V104.6H618.087ZM643.734 104.6V17H654.174V104.6H643.734ZM674.662 33.68C672.662 33.68 670.982 33 669.622 31.64C668.262 30.28 667.582 28.64 667.582 26.72C667.582 24.8 668.262 23.16 669.622 21.8C670.982 20.36 672.662 19.64 674.662 19.64C676.582 19.64 678.222 20.36 679.582 21.8C680.942 23.16 681.622 24.8 681.622 26.72C681.622 28.64 680.942 30.28 679.582 31.64C678.222 33 676.582 33.68 674.662 33.68ZM669.382 104.6V44.6H679.822V104.6H669.382ZM723.229 106.16C714.189 106.16 706.669 103.16 700.669 97.16C694.669 91.08 691.669 83.56 691.669 74.6C691.669 65.64 694.669 58.16 700.669 52.16C706.669 46.08 714.189 43.04 723.229 43.04C729.149 43.04 734.469 44.48 739.189 47.36C743.909 50.16 747.429 53.96 749.749 58.76L740.989 63.8C739.469 60.6 737.109 58.04 733.909 56.12C730.789 54.2 727.229 53.24 723.229 53.24C717.229 53.24 712.189 55.28 708.109 59.36C704.109 63.44 702.109 68.52 702.109 74.6C702.109 80.6 704.109 85.64 708.109 89.72C712.189 93.8 717.229 95.84 723.229 95.84C727.229 95.84 730.829 94.92 734.029 93.08C737.229 91.16 739.669 88.6 741.349 85.4L750.229 90.56C747.669 95.28 743.989 99.08 739.189 101.96C734.389 104.76 729.069 106.16 723.229 106.16ZM808.676 44.6H819.116V104.6H808.676V94.28C803.476 102.2 795.916 106.16 785.996 106.16C777.596 106.16 770.436 103.12 764.516 97.04C758.596 90.88 755.636 83.4 755.636 74.6C755.636 65.8 758.596 58.36 764.516 52.28C770.436 46.12 777.596 43.04 785.996 43.04C795.916 43.04 803.476 47 808.676 54.92V44.6ZM787.316 96.08C793.396 96.08 798.476 94.04 802.556 89.96C806.636 85.8 808.676 80.68 808.676 74.6C808.676 68.52 806.636 63.44 802.556 59.36C798.476 55.2 793.396 53.12 787.316 53.12C781.316 53.12 776.276 55.2 772.196 59.36C768.116 63.44 766.076 68.52 766.076 74.6C766.076 80.68 768.116 85.8 772.196 89.96C776.276 94.04 781.316 96.08 787.316 96.08ZM866.854 54.68H850.894V87.2C850.894 90.16 851.454 92.28 852.574 93.56C853.774 94.76 855.574 95.4 857.974 95.48C860.374 95.48 863.334 95.4 866.854 95.24V104.6C857.734 105.8 851.054 105.08 846.814 102.44C842.574 99.72 840.454 94.64 840.454 87.2V54.68H828.574V44.6H840.454V30.92L850.894 27.8V44.6H866.854V54.68ZM883.774 33.68C881.774 33.68 880.094 33 878.734 31.64C877.374 30.28 876.694 28.64 876.694 26.72C876.694 24.8 877.374 23.16 878.734 21.8C880.094 20.36 881.774 19.64 883.774 19.64C885.694 19.64 887.334 20.36 888.694 21.8C890.054 23.16 890.734 24.8 890.734 26.72C890.734 28.64 890.054 30.28 888.694 31.64C887.334 33 885.694 33.68 883.774 33.68ZM878.494 104.6V44.6H888.934V104.6H878.494ZM954.781 97.04C948.621 103.12 941.141 106.16 932.341 106.16C923.541 106.16 916.061 103.12 909.901 97.04C903.821 90.96 900.781 83.48 900.781 74.6C900.781 65.72 903.821 58.24 909.901 52.16C916.061 46.08 923.541 43.04 932.341 43.04C941.141 43.04 948.621 46.08 954.781 52.16C960.941 58.24 964.021 65.72 964.021 74.6C964.021 83.48 960.941 90.96 954.781 97.04ZM932.341 95.96C938.341 95.96 943.381 93.92 947.461 89.84C951.541 85.76 953.581 80.68 953.581 74.6C953.581 68.52 951.541 63.44 947.461 59.36C943.381 55.28 938.341 53.24 932.341 53.24C926.421 53.24 921.421 55.28 917.341 59.36C913.261 63.44 911.221 68.52 911.221 74.6C911.221 80.68 913.261 85.76 917.341 89.84C921.421 93.92 926.421 95.96 932.341 95.96ZM1005.49 43.04C1012.53 43.04 1018.17 45.28 1022.41 49.76C1026.65 54.16 1028.77 60.16 1028.77 67.76V104.6H1018.33V68.36C1018.33 63.48 1017.01 59.72 1014.37 57.08C1011.73 54.36 1008.09 53 1003.45 53C998.248 53 994.048 54.64 990.848 57.92C987.648 61.12 986.048 66.08 986.048 72.8V104.6H975.608V44.6H986.048V53.24C990.288 46.44 996.768 43.04 1005.49 43.04ZM1051.62 60.8C1051.62 63.12 1052.78 65 1055.1 66.44C1057.42 67.8 1060.22 68.92 1063.5 69.8C1066.78 70.6 1070.06 71.56 1073.34 72.68C1076.62 73.72 1079.42 75.56 1081.74 78.2C1084.06 80.76 1085.22 84.08 1085.22 88.16C1085.22 93.6 1083.1 97.96 1078.86 101.24C1074.7 104.52 1069.34 106.16 1062.78 106.16C1056.94 106.16 1051.94 104.88 1047.78 102.32C1043.62 99.76 1040.66 96.36 1038.9 92.12L1047.9 86.96C1048.86 89.84 1050.66 92.12 1053.3 93.8C1055.94 95.48 1059.1 96.32 1062.78 96.32C1066.22 96.32 1069.06 95.68 1071.3 94.4C1073.54 93.04 1074.66 90.96 1074.66 88.16C1074.66 85.84 1073.5 84 1071.18 82.64C1068.86 81.2 1066.06 80.08 1062.78 79.28C1059.5 78.4 1056.22 77.4 1052.94 76.28C1049.66 75.16 1046.86 73.32 1044.54 70.76C1042.22 68.2 1041.06 64.92 1041.06 60.92C1041.06 55.72 1043.06 51.44 1047.06 48.08C1051.14 44.72 1056.22 43.04 1062.3 43.04C1067.18 43.04 1071.5 44.16 1075.26 46.4C1079.1 48.56 1081.98 51.6 1083.9 55.52L1075.14 60.44C1072.98 55.32 1068.7 52.76 1062.3 52.76C1059.34 52.76 1056.82 53.48 1054.74 54.92C1052.66 56.28 1051.62 58.24 1051.62 60.8Z"/>
</mask>
<path d="M78.6 20.6V104.6H67.56V38.96L40.08 84.68H38.64L11.16 39.08V104.6H0V20.6H12.6L39.36 65L66 20.6H78.6ZM145.402 97.04C139.242 103.12 131.763 106.16 122.963 106.16C114.163 106.16 106.682 103.12 100.522 97.04C94.4425 90.96 91.4025 83.48 91.4025 74.6C91.4025 65.72 94.4425 58.24 100.522 52.16C106.682 46.08 114.163 43.04 122.963 43.04C131.763 43.04 139.242 46.08 145.402 52.16C151.562 58.24 154.643 65.72 154.643 74.6C154.643 83.48 151.562 90.96 145.402 97.04ZM122.963 95.96C128.963 95.96 134.003 93.92 138.083 89.84C142.163 85.76 144.202 80.68 144.202 74.6C144.202 68.52 142.163 63.44 138.083 59.36C134.003 55.28 128.963 53.24 122.963 53.24C117.043 53.24 112.043 55.28 107.963 59.36C103.883 63.44 101.842 68.52 101.842 74.6C101.842 80.68 103.883 85.76 107.963 89.84C112.043 93.92 117.043 95.96 122.963 95.96ZM199.35 43.04C207.75 43.04 214.91 46.12 220.83 52.28C226.75 58.36 229.71 65.8 229.71 74.6C229.71 83.4 226.75 90.88 220.83 97.04C214.91 103.12 207.75 106.16 199.35 106.16C189.43 106.16 181.87 102.2 176.67 94.28V104.6H166.23V20.6H176.67V54.92C181.87 47 189.43 43.04 199.35 43.04ZM198.03 96.08C204.03 96.08 209.07 94.04 213.15 89.96C217.23 85.8 219.27 80.68 219.27 74.6C219.27 68.52 217.23 63.44 213.15 59.36C209.07 55.2 204.03 53.12 198.03 53.12C191.95 53.12 186.87 55.2 182.79 59.36C178.71 63.44 176.67 68.52 176.67 74.6C176.67 80.68 178.71 85.8 182.79 89.96C186.87 94.04 191.95 96.08 198.03 96.08ZM246.727 33.68C244.727 33.68 243.047 33 241.688 31.64C240.327 30.28 239.647 28.64 239.647 26.72C239.647 24.8 240.327 23.16 241.688 21.8C243.047 20.36 244.727 19.64 246.727 19.64C248.647 19.64 250.287 20.36 251.647 21.8C253.007 23.16 253.688 24.8 253.688 26.72C253.688 28.64 253.007 30.28 251.647 31.64C250.287 33 248.647 33.68 246.727 33.68ZM241.447 104.6V44.6H251.887V104.6H241.447ZM267.095 104.6V17H277.535V104.6H267.095ZM300.062 79.4C301.102 84.76 303.542 88.92 307.382 91.88C311.302 94.84 316.102 96.32 321.782 96.32C329.702 96.32 335.462 93.4 339.062 87.56L347.942 92.6C342.102 101.64 333.302 106.16 321.542 106.16C312.022 106.16 304.262 103.2 298.262 97.28C292.342 91.28 289.382 83.72 289.382 74.6C289.382 65.56 292.302 58.04 298.142 52.04C303.982 46.04 311.542 43.04 320.822 43.04C329.622 43.04 336.782 46.16 342.302 52.4C347.902 58.56 350.702 66 350.702 74.72C350.702 76.24 350.582 77.8 350.342 79.4H300.062ZM320.822 52.88C315.222 52.88 310.582 54.48 306.902 57.68C303.222 60.8 300.942 65 300.062 70.28H340.142C339.262 64.6 337.022 60.28 333.422 57.32C329.822 54.36 325.622 52.88 320.822 52.88ZM447.663 104.6L440.823 85.76H403.023L396.183 104.6H384.303L415.623 20.6H428.223L459.543 104.6H447.663ZM406.863 75.32H436.983L421.863 33.92L406.863 75.32ZM500.772 43.04C509.172 43.04 516.332 46.12 522.252 52.28C528.172 58.36 531.132 65.8 531.132 74.6C531.132 83.4 528.172 90.88 522.252 97.04C516.332 103.12 509.172 106.16 500.772 106.16C490.852 106.16 483.292 102.2 478.092 94.28V128.6H467.652V44.6H478.092V54.92C483.292 47 490.852 43.04 500.772 43.04ZM499.452 96.08C505.452 96.08 510.492 94.04 514.572 89.96C518.652 85.8 520.692 80.68 520.692 74.6C520.692 68.52 518.652 63.44 514.572 59.36C510.492 55.2 505.452 53.12 499.452 53.12C493.372 53.12 488.292 55.2 484.212 59.36C480.132 63.44 478.092 68.52 478.092 74.6C478.092 80.68 480.132 85.8 484.212 89.96C488.292 94.04 493.372 96.08 499.452 96.08ZM575.99 43.04C584.39 43.04 591.55 46.12 597.47 52.28C603.39 58.36 606.35 65.8 606.35 74.6C606.35 83.4 603.39 90.88 597.47 97.04C591.55 103.12 584.39 106.16 575.99 106.16C566.07 106.16 558.51 102.2 553.31 94.28V128.6H542.87V44.6H553.31V54.92C558.51 47 566.07 43.04 575.99 43.04ZM574.67 96.08C580.67 96.08 585.71 94.04 589.79 89.96C593.87 85.8 595.91 80.68 595.91 74.6C595.91 68.52 593.87 63.44 589.79 59.36C585.71 55.2 580.67 53.12 574.67 53.12C568.59 53.12 563.51 55.2 559.43 59.36C555.35 63.44 553.31 68.52 553.31 74.6C553.31 80.68 555.35 85.8 559.43 89.96C563.51 94.04 568.59 96.08 574.67 96.08ZM618.087 104.6V17H628.527V104.6H618.087ZM643.734 104.6V17H654.174V104.6H643.734ZM674.662 33.68C672.662 33.68 670.982 33 669.622 31.64C668.262 30.28 667.582 28.64 667.582 26.72C667.582 24.8 668.262 23.16 669.622 21.8C670.982 20.36 672.662 19.64 674.662 19.64C676.582 19.64 678.222 20.36 679.582 21.8C680.942 23.16 681.622 24.8 681.622 26.72C681.622 28.64 680.942 30.28 679.582 31.64C678.222 33 676.582 33.68 674.662 33.68ZM669.382 104.6V44.6H679.822V104.6H669.382ZM723.229 106.16C714.189 106.16 706.669 103.16 700.669 97.16C694.669 91.08 691.669 83.56 691.669 74.6C691.669 65.64 694.669 58.16 700.669 52.16C706.669 46.08 714.189 43.04 723.229 43.04C729.149 43.04 734.469 44.48 739.189 47.36C743.909 50.16 747.429 53.96 749.749 58.76L740.989 63.8C739.469 60.6 737.109 58.04 733.909 56.12C730.789 54.2 727.229 53.24 723.229 53.24C717.229 53.24 712.189 55.28 708.109 59.36C704.109 63.44 702.109 68.52 702.109 74.6C702.109 80.6 704.109 85.64 708.109 89.72C712.189 93.8 717.229 95.84 723.229 95.84C727.229 95.84 730.829 94.92 734.029 93.08C737.229 91.16 739.669 88.6 741.349 85.4L750.229 90.56C747.669 95.28 743.989 99.08 739.189 101.96C734.389 104.76 729.069 106.16 723.229 106.16ZM808.676 44.6H819.116V104.6H808.676V94.28C803.476 102.2 795.916 106.16 785.996 106.16C777.596 106.16 770.436 103.12 764.516 97.04C758.596 90.88 755.636 83.4 755.636 74.6C755.636 65.8 758.596 58.36 764.516 52.28C770.436 46.12 777.596 43.04 785.996 43.04C795.916 43.04 803.476 47 808.676 54.92V44.6ZM787.316 96.08C793.396 96.08 798.476 94.04 802.556 89.96C806.636 85.8 808.676 80.68 808.676 74.6C808.676 68.52 806.636 63.44 802.556 59.36C798.476 55.2 793.396 53.12 787.316 53.12C781.316 53.12 776.276 55.2 772.196 59.36C768.116 63.44 766.076 68.52 766.076 74.6C766.076 80.68 768.116 85.8 772.196 89.96C776.276 94.04 781.316 96.08 787.316 96.08ZM866.854 54.68H850.894V87.2C850.894 90.16 851.454 92.28 852.574 93.56C853.774 94.76 855.574 95.4 857.974 95.48C860.374 95.48 863.334 95.4 866.854 95.24V104.6C857.734 105.8 851.054 105.08 846.814 102.44C842.574 99.72 840.454 94.64 840.454 87.2V54.68H828.574V44.6H840.454V30.92L850.894 27.8V44.6H866.854V54.68ZM883.774 33.68C881.774 33.68 880.094 33 878.734 31.64C877.374 30.28 876.694 28.64 876.694 26.72C876.694 24.8 877.374 23.16 878.734 21.8C880.094 20.36 881.774 19.64 883.774 19.64C885.694 19.64 887.334 20.36 888.694 21.8C890.054 23.16 890.734 24.8 890.734 26.72C890.734 28.64 890.054 30.28 888.694 31.64C887.334 33 885.694 33.68 883.774 33.68ZM878.494 104.6V44.6H888.934V104.6H878.494ZM954.781 97.04C948.621 103.12 941.141 106.16 932.341 106.16C923.541 106.16 916.061 103.12 909.901 97.04C903.821 90.96 900.781 83.48 900.781 74.6C900.781 65.72 903.821 58.24 909.901 52.16C916.061 46.08 923.541 43.04 932.341 43.04C941.141 43.04 948.621 46.08 954.781 52.16C960.941 58.24 964.021 65.72 964.021 74.6C964.021 83.48 960.941 90.96 954.781 97.04ZM932.341 95.96C938.341 95.96 943.381 93.92 947.461 89.84C951.541 85.76 953.581 80.68 953.581 74.6C953.581 68.52 951.541 63.44 947.461 59.36C943.381 55.28 938.341 53.24 932.341 53.24C926.421 53.24 921.421 55.28 917.341 59.36C913.261 63.44 911.221 68.52 911.221 74.6C911.221 80.68 913.261 85.76 917.341 89.84C921.421 93.92 926.421 95.96 932.341 95.96ZM1005.49 43.04C1012.53 43.04 1018.17 45.28 1022.41 49.76C1026.65 54.16 1028.77 60.16 1028.77 67.76V104.6H1018.33V68.36C1018.33 63.48 1017.01 59.72 1014.37 57.08C1011.73 54.36 1008.09 53 1003.45 53C998.248 53 994.048 54.64 990.848 57.92C987.648 61.12 986.048 66.08 986.048 72.8V104.6H975.608V44.6H986.048V53.24C990.288 46.44 996.768 43.04 1005.49 43.04ZM1051.62 60.8C1051.62 63.12 1052.78 65 1055.1 66.44C1057.42 67.8 1060.22 68.92 1063.5 69.8C1066.78 70.6 1070.06 71.56 1073.34 72.68C1076.62 73.72 1079.42 75.56 1081.74 78.2C1084.06 80.76 1085.22 84.08 1085.22 88.16C1085.22 93.6 1083.1 97.96 1078.86 101.24C1074.7 104.52 1069.34 106.16 1062.78 106.16C1056.94 106.16 1051.94 104.88 1047.78 102.32C1043.62 99.76 1040.66 96.36 1038.9 92.12L1047.9 86.96C1048.86 89.84 1050.66 92.12 1053.3 93.8C1055.94 95.48 1059.1 96.32 1062.78 96.32C1066.22 96.32 1069.06 95.68 1071.3 94.4C1073.54 93.04 1074.66 90.96 1074.66 88.16C1074.66 85.84 1073.5 84 1071.18 82.64C1068.86 81.2 1066.06 80.08 1062.78 79.28C1059.5 78.4 1056.22 77.4 1052.94 76.28C1049.66 75.16 1046.86 73.32 1044.54 70.76C1042.22 68.2 1041.06 64.92 1041.06 60.92C1041.06 55.72 1043.06 51.44 1047.06 48.08C1051.14 44.72 1056.22 43.04 1062.3 43.04C1067.18 43.04 1071.5 44.16 1075.26 46.4C1079.1 48.56 1081.98 51.6 1083.9 55.52L1075.14 60.44C1072.98 55.32 1068.7 52.76 1062.3 52.76C1059.34 52.76 1056.82 53.48 1054.74 54.92C1052.66 56.28 1051.62 58.24 1051.62 60.8Z" stroke="black" stroke-width="2" mask="url(#path-1-inside-1_533_69203)"/>
</svg>
