<svg width="491" height="150" viewBox="0 0 491 150" fill="none" xmlns="http://www.w3.org/2000/svg">
<mask id="path-1-inside-1_533_69207" fill="white">
<path d="M24.12 105L0 21H11.76L30.96 90.12L51.36 21H62.64L83.04 90.12L102.24 21H114L89.88 105H76.92L57 37.92L37.08 105H24.12ZM124.372 79.8C125.412 85.16 127.852 89.32 131.692 92.28C135.612 95.24 140.412 96.72 146.092 96.72C154.012 96.72 159.772 93.8 163.372 87.96L172.252 93C166.412 102.04 157.612 106.56 145.852 106.56C136.332 106.56 128.572 103.6 122.572 97.68C116.652 91.68 113.692 84.12 113.692 75C113.692 65.96 116.612 58.44 122.452 52.44C128.292 46.44 135.852 43.44 145.132 43.44C153.932 43.44 161.092 46.56 166.612 52.8C172.212 58.96 175.012 66.4 175.012 75.12C175.012 76.64 174.892 78.2 174.652 79.8H124.372ZM145.132 53.28C139.532 53.28 134.892 54.88 131.212 58.08C127.532 61.2 125.252 65.4 124.372 70.68H164.452C163.572 65 161.332 60.68 157.732 57.72C154.132 54.76 149.932 53.28 145.132 53.28ZM219.412 43.44C227.812 43.44 234.973 46.52 240.893 52.68C246.813 58.76 249.773 66.2 249.773 75C249.773 83.8 246.813 91.28 240.893 97.44C234.973 103.52 227.812 106.56 219.412 106.56C209.492 106.56 201.932 102.6 196.732 94.68V105H186.292V21H196.732V55.32C201.932 47.4 209.492 43.44 219.412 43.44ZM218.092 96.48C224.092 96.48 229.132 94.44 233.212 90.36C237.292 86.2 239.333 81.08 239.333 75C239.333 68.92 237.292 63.84 233.212 59.76C229.132 55.6 224.092 53.52 218.092 53.52C212.012 53.52 206.932 55.6 202.852 59.76C198.772 63.84 196.732 68.92 196.732 75C196.732 81.08 198.772 86.2 202.852 90.36C206.932 94.44 212.012 96.48 218.092 96.48ZM269.221 61.2C269.221 63.52 270.381 65.4 272.701 66.84C275.021 68.2 277.821 69.32 281.101 70.2C284.381 71 287.661 71.96 290.941 73.08C294.221 74.12 297.021 75.96 299.341 78.6C301.661 81.16 302.821 84.48 302.821 88.56C302.821 94 300.701 98.36 296.461 101.64C292.301 104.92 286.941 106.56 280.381 106.56C274.541 106.56 269.541 105.28 265.381 102.72C261.221 100.16 258.261 96.76 256.501 92.52L265.501 87.36C266.461 90.24 268.261 92.52 270.901 94.2C273.541 95.88 276.701 96.72 280.381 96.72C283.821 96.72 286.661 96.08 288.901 94.8C291.141 93.44 292.261 91.36 292.261 88.56C292.261 86.24 291.101 84.4 288.781 83.04C286.461 81.6 283.661 80.48 280.381 79.68C277.101 78.8 273.821 77.8 270.541 76.68C267.261 75.56 264.461 73.72 262.141 71.16C259.821 68.6 258.661 65.32 258.661 61.32C258.661 56.12 260.661 51.84 264.661 48.48C268.741 45.12 273.821 43.44 279.901 43.44C284.781 43.44 289.101 44.56 292.861 46.8C296.701 48.96 299.581 52 301.501 55.92L292.741 60.84C290.581 55.72 286.301 53.16 279.901 53.16C276.941 53.16 274.421 53.88 272.341 55.32C270.261 56.68 269.221 58.64 269.221 61.2ZM319.156 34.08C317.156 34.08 315.476 33.4 314.116 32.04C312.756 30.68 312.076 29.04 312.076 27.12C312.076 25.2 312.756 23.56 314.116 22.2C315.476 20.76 317.156 20.04 319.156 20.04C321.076 20.04 322.716 20.76 324.076 22.2C325.436 23.56 326.116 25.2 326.116 27.12C326.116 29.04 325.436 30.68 324.076 32.04C322.716 33.4 321.076 34.08 319.156 34.08ZM313.876 105V45H324.316V105H313.876ZM372.163 55.08H356.203V87.6C356.203 90.56 356.763 92.68 357.883 93.96C359.083 95.16 360.883 95.8 363.283 95.88C365.683 95.88 368.643 95.8 372.163 95.64V105C363.043 106.2 356.363 105.48 352.123 102.84C347.883 100.12 345.763 95.04 345.763 87.6V55.08H333.883V45H345.763V31.32L356.203 28.2V45H372.163V55.08ZM388.076 79.8C389.116 85.16 391.556 89.32 395.396 92.28C399.316 95.24 404.116 96.72 409.796 96.72C417.716 96.72 423.476 93.8 427.076 87.96L435.956 93C430.116 102.04 421.316 106.56 409.556 106.56C400.036 106.56 392.276 103.6 386.276 97.68C380.356 91.68 377.396 84.12 377.396 75C377.396 65.96 380.316 58.44 386.156 52.44C391.996 46.44 399.556 43.44 408.836 43.44C417.636 43.44 424.796 46.56 430.316 52.8C435.916 58.96 438.716 66.4 438.716 75.12C438.716 76.64 438.596 78.2 438.356 79.8H388.076ZM408.836 53.28C403.236 53.28 398.596 54.88 394.916 58.08C391.236 61.2 388.956 65.4 388.076 70.68H428.156C427.276 65 425.036 60.68 421.436 57.72C417.836 54.76 413.636 53.28 408.836 53.28ZM456.653 61.2C456.653 63.52 457.813 65.4 460.133 66.84C462.453 68.2 465.253 69.32 468.533 70.2C471.813 71 475.093 71.96 478.373 73.08C481.653 74.12 484.453 75.96 486.773 78.6C489.093 81.16 490.253 84.48 490.253 88.56C490.253 94 488.133 98.36 483.893 101.64C479.733 104.92 474.373 106.56 467.813 106.56C461.973 106.56 456.973 105.28 452.813 102.72C448.653 100.16 445.693 96.76 443.933 92.52L452.933 87.36C453.893 90.24 455.693 92.52 458.333 94.2C460.973 95.88 464.133 96.72 467.813 96.72C471.253 96.72 474.093 96.08 476.333 94.8C478.573 93.44 479.693 91.36 479.693 88.56C479.693 86.24 478.533 84.4 476.213 83.04C473.893 81.6 471.093 80.48 467.813 79.68C464.533 78.8 461.253 77.8 457.973 76.68C454.693 75.56 451.893 73.72 449.573 71.16C447.253 68.6 446.093 65.32 446.093 61.32C446.093 56.12 448.093 51.84 452.093 48.48C456.173 45.12 461.253 43.44 467.333 43.44C472.213 43.44 476.533 44.56 480.293 46.8C484.133 48.96 487.013 52 488.933 55.92L480.173 60.84C478.013 55.72 473.733 53.16 467.333 53.16C464.373 53.16 461.853 53.88 459.773 55.32C457.693 56.68 456.653 58.64 456.653 61.2Z"/>
</mask>
<path d="M24.12 105L0 21H11.76L30.96 90.12L51.36 21H62.64L83.04 90.12L102.24 21H114L89.88 105H76.92L57 37.92L37.08 105H24.12ZM124.372 79.8C125.412 85.16 127.852 89.32 131.692 92.28C135.612 95.24 140.412 96.72 146.092 96.72C154.012 96.72 159.772 93.8 163.372 87.96L172.252 93C166.412 102.04 157.612 106.56 145.852 106.56C136.332 106.56 128.572 103.6 122.572 97.68C116.652 91.68 113.692 84.12 113.692 75C113.692 65.96 116.612 58.44 122.452 52.44C128.292 46.44 135.852 43.44 145.132 43.44C153.932 43.44 161.092 46.56 166.612 52.8C172.212 58.96 175.012 66.4 175.012 75.12C175.012 76.64 174.892 78.2 174.652 79.8H124.372ZM145.132 53.28C139.532 53.28 134.892 54.88 131.212 58.08C127.532 61.2 125.252 65.4 124.372 70.68H164.452C163.572 65 161.332 60.68 157.732 57.72C154.132 54.76 149.932 53.28 145.132 53.28ZM219.412 43.44C227.812 43.44 234.973 46.52 240.893 52.68C246.813 58.76 249.773 66.2 249.773 75C249.773 83.8 246.813 91.28 240.893 97.44C234.973 103.52 227.812 106.56 219.412 106.56C209.492 106.56 201.932 102.6 196.732 94.68V105H186.292V21H196.732V55.32C201.932 47.4 209.492 43.44 219.412 43.44ZM218.092 96.48C224.092 96.48 229.132 94.44 233.212 90.36C237.292 86.2 239.333 81.08 239.333 75C239.333 68.92 237.292 63.84 233.212 59.76C229.132 55.6 224.092 53.52 218.092 53.52C212.012 53.52 206.932 55.6 202.852 59.76C198.772 63.84 196.732 68.92 196.732 75C196.732 81.08 198.772 86.2 202.852 90.36C206.932 94.44 212.012 96.48 218.092 96.48ZM269.221 61.2C269.221 63.52 270.381 65.4 272.701 66.84C275.021 68.2 277.821 69.32 281.101 70.2C284.381 71 287.661 71.96 290.941 73.08C294.221 74.12 297.021 75.96 299.341 78.6C301.661 81.16 302.821 84.48 302.821 88.56C302.821 94 300.701 98.36 296.461 101.64C292.301 104.92 286.941 106.56 280.381 106.56C274.541 106.56 269.541 105.28 265.381 102.72C261.221 100.16 258.261 96.76 256.501 92.52L265.501 87.36C266.461 90.24 268.261 92.52 270.901 94.2C273.541 95.88 276.701 96.72 280.381 96.72C283.821 96.72 286.661 96.08 288.901 94.8C291.141 93.44 292.261 91.36 292.261 88.56C292.261 86.24 291.101 84.4 288.781 83.04C286.461 81.6 283.661 80.48 280.381 79.68C277.101 78.8 273.821 77.8 270.541 76.68C267.261 75.56 264.461 73.72 262.141 71.16C259.821 68.6 258.661 65.32 258.661 61.32C258.661 56.12 260.661 51.84 264.661 48.48C268.741 45.12 273.821 43.44 279.901 43.44C284.781 43.44 289.101 44.56 292.861 46.8C296.701 48.96 299.581 52 301.501 55.92L292.741 60.84C290.581 55.72 286.301 53.16 279.901 53.16C276.941 53.16 274.421 53.88 272.341 55.32C270.261 56.68 269.221 58.64 269.221 61.2ZM319.156 34.08C317.156 34.08 315.476 33.4 314.116 32.04C312.756 30.68 312.076 29.04 312.076 27.12C312.076 25.2 312.756 23.56 314.116 22.2C315.476 20.76 317.156 20.04 319.156 20.04C321.076 20.04 322.716 20.76 324.076 22.2C325.436 23.56 326.116 25.2 326.116 27.12C326.116 29.04 325.436 30.68 324.076 32.04C322.716 33.4 321.076 34.08 319.156 34.08ZM313.876 105V45H324.316V105H313.876ZM372.163 55.08H356.203V87.6C356.203 90.56 356.763 92.68 357.883 93.96C359.083 95.16 360.883 95.8 363.283 95.88C365.683 95.88 368.643 95.8 372.163 95.64V105C363.043 106.2 356.363 105.48 352.123 102.84C347.883 100.12 345.763 95.04 345.763 87.6V55.08H333.883V45H345.763V31.32L356.203 28.2V45H372.163V55.08ZM388.076 79.8C389.116 85.16 391.556 89.32 395.396 92.28C399.316 95.24 404.116 96.72 409.796 96.72C417.716 96.72 423.476 93.8 427.076 87.96L435.956 93C430.116 102.04 421.316 106.56 409.556 106.56C400.036 106.56 392.276 103.6 386.276 97.68C380.356 91.68 377.396 84.12 377.396 75C377.396 65.96 380.316 58.44 386.156 52.44C391.996 46.44 399.556 43.44 408.836 43.44C417.636 43.44 424.796 46.56 430.316 52.8C435.916 58.96 438.716 66.4 438.716 75.12C438.716 76.64 438.596 78.2 438.356 79.8H388.076ZM408.836 53.28C403.236 53.28 398.596 54.88 394.916 58.08C391.236 61.2 388.956 65.4 388.076 70.68H428.156C427.276 65 425.036 60.68 421.436 57.72C417.836 54.76 413.636 53.28 408.836 53.28ZM456.653 61.2C456.653 63.52 457.813 65.4 460.133 66.84C462.453 68.2 465.253 69.32 468.533 70.2C471.813 71 475.093 71.96 478.373 73.08C481.653 74.12 484.453 75.96 486.773 78.6C489.093 81.16 490.253 84.48 490.253 88.56C490.253 94 488.133 98.36 483.893 101.64C479.733 104.92 474.373 106.56 467.813 106.56C461.973 106.56 456.973 105.28 452.813 102.72C448.653 100.16 445.693 96.76 443.933 92.52L452.933 87.36C453.893 90.24 455.693 92.52 458.333 94.2C460.973 95.88 464.133 96.72 467.813 96.72C471.253 96.72 474.093 96.08 476.333 94.8C478.573 93.44 479.693 91.36 479.693 88.56C479.693 86.24 478.533 84.4 476.213 83.04C473.893 81.6 471.093 80.48 467.813 79.68C464.533 78.8 461.253 77.8 457.973 76.68C454.693 75.56 451.893 73.72 449.573 71.16C447.253 68.6 446.093 65.32 446.093 61.32C446.093 56.12 448.093 51.84 452.093 48.48C456.173 45.12 461.253 43.44 467.333 43.44C472.213 43.44 476.533 44.56 480.293 46.8C484.133 48.96 487.013 52 488.933 55.92L480.173 60.84C478.013 55.72 473.733 53.16 467.333 53.16C464.373 53.16 461.853 53.88 459.773 55.32C457.693 56.68 456.653 58.64 456.653 61.2Z" stroke="black" stroke-width="2" mask="url(#path-1-inside-1_533_69207)"/>
</svg>
